<?xml version="1.0" standalone="no"?><!DOCTYPE svg PUBLIC "-//W3C//DTD SVG 1.1//EN" "http://www.w3.org/Graphics/SVG/1.1/DTD/svg11.dtd"><svg t="1530589076154" style="" viewBox="0 0 1024 1024" version="1.1" xmlns="http://www.w3.org/2000/svg" p-id="3456" xmlns:xlink="http://www.w3.org/1999/xlink" width="200" height="200"><defs><style type="text/css"></style></defs><path d="M701.880605 390.82622L908.457474 307.23029C839.909262 174.831864 708.261942 81.400938 552.739866 67.189262v223.094054a227.095181 227.095181 0 0 1 149.140739 100.542904zM287.450804 511.940648c-0.141216-108.396779 77.242222-201.390753 183.859472-220.949204V67.189262C245.073648 87.772043 66.865897 278.999318 66.865897 511.940648a445.484074 445.484074 0 0 0 87.661525 266.265296L320.775794 629.418246c-20.582781-34.611286-33.32499-75.04723-33.32499-117.477598z m651.414214-129.674385l-206.619848 83.59593c2.927679 14.930037 4.923126 29.689183 4.923126 45.347815 0 124.031874-100.382245 225.238904-224.949308 225.238904a219.720214 219.720214 0 0 1-137.116891-47.536667l-166.249395 148.798955c79.874165 74.350358 186.068789 119.709429 303.365262 119.709429 246.036579 0 445.523983-199.798489 445.523983-446.188109 0.171915-44.64071-6.918573-87.800695-18.876929-128.966257z" fill="" p-id="3457"></path></svg>