<?xml version="1.0" standalone="no"?><!DOCTYPE svg PUBLIC "-//W3C//DTD SVG 1.1//EN" "http://www.w3.org/Graphics/SVG/1.1/DTD/svg11.dtd"><svg t="1530586484264" style="" viewBox="0 0 1024 1024" version="1.1" xmlns="http://www.w3.org/2000/svg" p-id="3186" xmlns:xlink="http://www.w3.org/1999/xlink" width="200" height="200"><defs><style type="text/css"></style></defs><path d="M884.363636 865.745455c-93.090909 102.4-223.418182 158.254545-372.363636 158.254545-27.927273 0-55.854545 0-83.781818-9.309091L465.454545 875.054545h55.854546c102.4 0 186.181818-37.236364 251.345454-102.4l111.709091 93.09091z m46.545455-55.854546l-121.018182-93.090909c46.545455-55.854545 65.163636-130.327273 65.163636-214.109091 0-186.181818-139.636364-344.436364-316.50909-363.054545V0c260.654545 27.927273 465.454545 242.036364 465.454545 512 0 111.709091-37.236364 214.109091-93.090909 297.890909z m-567.854546 195.490909C223.418182 958.836364 111.709091 865.745455 55.854545 744.727273L186.181818 688.872727c46.545455 83.781818 111.709091 139.636364 204.8 167.563637l-27.927273 148.945454zM27.927273 679.563636C9.309091 623.709091 0 567.854545 0 512 0 232.727273 223.418182 9.309091 493.381818 0v148.945455c-195.490909 9.309091-344.436364 167.563636-344.436363 363.054545 0 37.236364 9.309091 83.781818 18.618181 121.018182l-139.636363 46.545454z" p-id="3187"></path><path d="M27.927273 679.563636C9.309091 623.709091 0 567.854545 0 512 0 232.727273 223.418182 9.309091 502.690909 0v148.945455c-195.490909 0-353.745455 167.563636-353.745454 363.054545 0 37.236364 9.309091 83.781818 18.618181 121.018182l-139.636363 46.545454zM428.218182 1014.690909l27.927273-139.636364h55.854545c102.4 0 204.8-46.545455 269.963636-111.70909l102.4 102.4c-93.090909 102.4-223.418182 158.254545-372.363636 158.254545-27.927273 0-55.854545 0-83.781818-9.309091z" p-id="3188"></path><path d="M232.727273 605.090909c-9.309091-27.927273-18.618182-65.163636-18.618182-93.090909 0-158.254545 121.018182-279.272727 279.272727-288.581818V372.363636c-74.472727 0-130.327273 65.163636-130.327273 139.636364 0 18.618182 9.309091 27.927273 9.309091 46.545455l-139.636363 46.545454z m27.927272 55.854546l139.636364-55.854546c27.927273 37.236364 65.163636 55.854545 111.709091 55.854546 83.781818 0 148.945455-65.163636 148.945455-148.945455 0-65.163636-37.236364-121.018182-93.09091-139.636364V223.418182c139.636364 27.927273 242.036364 139.636364 242.036364 288.581818 0 158.254545-130.327273 288.581818-288.581818 288.581818-121.018182 0-214.109091-55.854545-260.654546-139.636363z" p-id="3189"></path><path d="M232.727273 605.090909c-9.309091-27.927273-18.618182-65.163636-18.618182-93.090909 0-158.254545 121.018182-288.581818 279.272727-288.581818V372.363636c-65.163636 0-130.327273 65.163636-130.327273 139.636364 0 18.618182 9.309091 27.927273 9.309091 46.545455l-139.636363 46.545454z" p-id="3190"></path></svg>