<?xml version="1.0" encoding="utf-8"?>
<!-- Generator: Adobe Illustrator 23.0.2, SVG Export Plug-In . SVG Version: 6.00 Build 0)  -->
<svg version="1.1" id="图层_1" xmlns="http://www.w3.org/2000/svg" xmlns:xlink="http://www.w3.org/1999/xlink" x="0px" y="0px"
	 width="532.8px" height="566.9px" viewBox="0 0 532.8 566.9" style="enable-background:new 0 0 532.8 566.9;" xml:space="preserve"
	>
<g>
	<path d="M266.9,566.9c37,0,69-19.3,86.5-47.6H180.3C199,549.1,231.7,567.1,266.9,566.9 M528.3,457.4l1.7-0.8
		c-13.3-25-47.9-97.4-47.9-131.6V205.4C482.1,92.1,385.6,0,266.9,0C148.2,0,51.7,92.1,51.7,205.4v121.4c0,29.8-29.4,95.4-47.9,129.7
		l1.7,0.8c-2.8,3.8-4.4,8.3-4.5,13c0,13.3,11.4,24.2,25.3,24.2h121.2v-0.8h258.3v0.8h101.6c14,0,25.3-10.8,25.3-24.2
		C532.8,465.4,530.9,461.2,528.3,457.4"/>
</g>
</svg>
