<?xml version="1.0" standalone="no"?><!DOCTYPE svg PUBLIC "-//W3C//DTD SVG 1.1//EN" "http://www.w3.org/Graphics/SVG/1.1/DTD/svg11.dtd">
<svg t="1554802726875" style="" viewBox="0 0 1024 1024" version="1.1" 
    xmlns="http://www.w3.org/2000/svg" p-id="1164" 
    xmlns:xlink="http://www.w3.org/1999/xlink" width="200" height="200">
    <defs>
        <style type="text/css"></style>
    </defs>
    <path d="M603.564 138.976q61.043 71.217 243.445 283.414 0.727 0.727 2.18 4.36 7.267 8.72 7.267 21.801 0 12.354-7.267 21.074-0.727 0.727-2.18 2.907-61.043 71.217-243.445 284.14-14.534 15.987-31.975 8.72-18.894-8.72-18.894-29.795 0-47.962 0-143.887 0-6.54-5.087-11.627-3.634-3.634-10.901-3.634-122.813 5.814-213.65 90.111-90.838 83.571-109.005 206.383-34.155-75.577-34.155-157.694 0-74.85 28.341-143.16 27.615-68.31 74.85-118.452 47.962-50.869 114.092-82.117 66.13-30.521 139.527-33.428 5.814 0 10.174-4.36 5.087-4.36 5.087-10.174 0-54.503 0-162.781 0-21.074 18.168-29.795 6.54-2.907 12.354-2.907 12.354 0 21.074 10.901zM551.969 367.887q-69.763 0-132.986 27.615-63.223 27.615-109.005 74.124-45.056 46.509-72.67 111.185-26.888 63.95-26.888 134.44 0 19.621 0 59.59 43.602-101.738 135.893-164.961 92.291-63.223 205.657-63.223 11.627 0 21.074 8.72 8.72 8.72 8.72 21.074 0 45.782 0 136.62 0 5.814 4.36 7.267 4.36 2.18 8.72-2.18 73.397-85.751 220.917-257.979 4.36-5.814 4.36-10.901 0-5.087-4.36-10.174-73.397-87.204-220.917-260.886-2.18-2.18-5.814-2.907-1.453 0-2.907 0.727-4.36 2.18-4.36 7.267 0 51.596 0 154.788 0.727 13.081-7.994 21.074-8.72 8.72-21.801 8.72z" p-id="1165"></path>
</svg>