<?xml version="1.0" encoding="utf-8"?>
<!-- Generator: Adobe Illustrator 23.0.2, SVG Export Plug-In . SVG Version: 6.00 Build 0)  -->
<svg version="1.1" id="图层_1" xmlns="http://www.w3.org/2000/svg" xmlns:xlink="http://www.w3.org/1999/xlink" x="0px" y="0px"
	 width="566.9px" height="536.8px" viewBox="0 0 566.9 536.8" style="enable-background:new 0 0 566.9 536.8;" xml:space="preserve"
	>
<g>
	<g>
		<path d="M378.3,489.5h-253v-0.1l63.9,0v-87.8c0-0.6,0.2-1.1,0.2-1.7c0.9-51.4,42.8-93,94.4-93s93.5,41.6,94.4,93
			c0,0.6,0.2,1.1,0.2,1.7V489.5z M556.2,173.5l-59.8-39.2V58.5c0-13.1-10.6-23.6-23.6-23.6c-13.1,0-23.6,10.6-23.6,23.6v44.9
			L296.7,3.5c-4-2.5-8.7-3.7-13.4-3.4c-4.6-0.2-9.1,1-13,3.4L10.7,173.6c-10.9,7.2-14,21.8-6.8,32.7c7.2,10.9,21.8,14,32.7,6.8
			l10.7-7v290.4c0,22.2,20.1,40.3,44.8,40.3h383.3c24.7,0,44.8-18.1,44.8-40.3V206.4l10.2,6.7c7.1,4.6,16.1,5.1,23.6,1.3
			c7.5-3.8,12.5-11.3,12.9-19.8C567.4,186.2,563.3,178.2,556.2,173.5L556.2,173.5z M556.2,173.5"/>
	</g>
</g>
</svg>
