<?xml version="1.0" standalone="no"?><!DOCTYPE svg PUBLIC "-//W3C//DTD SVG 1.1//EN" "http://www.w3.org/Graphics/SVG/1.1/DTD/svg11.dtd"><svg t="1567733024848" class="icon" viewBox="0 0 1024 1024" version="1.1" xmlns="http://www.w3.org/2000/svg" p-id="4311" xmlns:xlink="http://www.w3.org/1999/xlink" width="32" height="32"><defs><style type="text/css"></style></defs><path d="M929.349092 665.265832c-5.418945-2.34821-80.922914-35.403775-178.82519-63.401658-33.055565-9.57347-66.653025-17.701887-100.431117-24.385254 49.854295-42.267772 82.367966-104.766273 82.367966-175.212559v-170.335509C732.28012 104.40501 628.778268 1.083789 501.252425 1.083789s-231.208326 103.321221-231.208326 230.847063v170.335509c0 72.433233 34.319986 136.376786 86.703123 178.82519-35.223143 7.405892-69.362498 16.437467-100.79238 25.830305-54.370083 16.256835-107.837008 35.403775-160.039513 57.62145-40.461457 16.256835-70.988181 61.775975-70.988181 105.66943v182.076557l2.348209 6.863997c13.1861 38.655142 48.589875 64.666079 88.328806 64.666078h792.611043c45.519139 0 83.99365-33.778091 89.773857-78.755336l0.722526-174.851296c0.180632-43.532193-30.165461-88.8707-69.362497-104.946904" p-id="4312"></path></svg>