<?xml version="1.0" standalone="no"?><!DOCTYPE svg PUBLIC "-//W3C//DTD SVG 1.1//EN" "http://www.w3.org/Graphics/SVG/1.1/DTD/svg11.dtd"><svg t="1530839371333" style="" viewBox="0 0 1024 1024" version="1.1" xmlns="http://www.w3.org/2000/svg" p-id="4206" xmlns:xlink="http://www.w3.org/1999/xlink" width="200" height="200"><defs><style type="text/css"></style></defs><path d="M486.8096 947.4048l-326.0416 0.1024c-22.7328 0-36.9152-9.8816-41.4208-28.8256-1.0752-4.1472-1.0752-8.704-1.0752-13.0048-0.1536-119.9104-0.1536-239.5136 0-359.0656 0-26.6752 15.0016-41.472 41.6256-41.472h653.3632c27.0336 0 41.8304 14.8992 41.8304 42.2912v54.1184h110.2336V232.3456c-6.2976-28.3648-23.9104-50.3808-43.2128-70.5536a3041.6896 3041.6896 0 0 0-94.6176-94.2592c-19.5072-18.5856-40.7552-34.816-67.8912-40.7552H107.2128C102.912 27.7504 98.816 28.672 94.7712 29.7472 47.5136 42.3936 19.0976 72.2944 9.984 120.576c-0.3584 1.8944-1.2288 3.584-1.8944 5.3248v759.1424c1.792 7.4752 3.328 15.104 5.8368 22.3232 14.848 41.8816 44.0832 67.1232 88.064 74.9568 1.8944 0.3584 3.4304 1.1264 5.2224 1.8432h449.5872v-36.7104H486.8096zM191.7952 106.8032c0-29.184 14.2848-43.4688 43.7248-43.4688h465.2544c30.0032 0 44.0832 14.08 44.0832 43.8784v243.9168c0 29.7472-14.2336 44.0832-44.2368 44.0832H235.3664c-29.2864 0-43.5712-14.3872-43.5712-43.6736v-244.736z" fill="" p-id="4207"></path><path d="M561.2032 101.12h108.3904v255.9488h-108.3904zM763.9552 947.4048l1.2288-0.1024h-1.2288z" fill="" p-id="4208"></path><path d="M573.952 623.4112v394.8544h428.4928v-394.8544H573.952z m377.088 342.1184h-324.6592v-286.8736h324.6592v286.8736z" fill="" p-id="4209"></path><path d="M679.9872 711.3728s3.5328-5.4784 5.888 0.9216c0 0 21.8112 108.288 116.8384 96.256l4.864-31.8464s4.352-18.4832 20.48-3.4816l78.848 83.968s17.5104 12.2368-4.5568 22.0672l-101.2736 57.0368s-15.0016 6.7584-16.0256-8.192l5.12-34.4064c0.0512-0.1536-168.704-33.3824-110.1824-182.3232z" fill="" p-id="4210"></path></svg>