<?xml version="1.0" standalone="no"?><!DOCTYPE svg PUBLIC "-//W3C//DTD SVG 1.1//EN" "http://www.w3.org/Graphics/SVG/1.1/DTD/svg11.dtd"><svg t="1567733003356" class="icon" viewBox="0 0 1024 1024" version="1.1" xmlns="http://www.w3.org/2000/svg" p-id="4079" width="32" height="32" xmlns:xlink="http://www.w3.org/1999/xlink"><defs><style type="text/css"></style></defs><path d="M534.127359 800.558829c0 24.565885-19.869466 44.43535-44.43535 44.43535-24.565885 0-44.43535-19.869466-44.43535-44.43535V623.178691c0-24.565885 19.869466-44.43535 44.43535-44.43535 24.565885 0 44.43535 19.869466 44.43535 44.43535v177.380138z m355.121539-399.195626H326.58176V263.721997c0-95.192803 77.129652-172.503087 172.503087-172.683719 95.373434 0.180632 172.503087 77.490916 172.503087 172.683719 0 24.565885 19.869466 44.43535 44.435351 44.43535 24.565885 0 44.43535-19.869466 44.43535-44.43535-0.180632-144.324572-117.229847-261.373787-261.373788-261.554419-143.963309 0-261.193156 117.229847-261.193155 261.373787v137.821838H90.135121C41.183983 401.543835 1.806315 441.282766 1.806315 490.233904v443.269712c0 48.951138 39.377668 88.690069 88.328806 88.8707h799.113777c48.951138-0.180632 88.328806-39.919563 88.328805-88.8707V490.233904c0.180632-48.951138-39.377668-88.690069-88.328805-88.870701z m0 0" p-id="4080"></path></svg>