<?xml version="1.0" encoding="utf-8"?>
<!-- Generator: Adobe Illustrator 23.0.2, SVG Export Plug-In . SVG Version: 6.00 Build 0)  -->
<svg version="1.1" id="图层_1" xmlns="http://www.w3.org/2000/svg" xmlns:xlink="http://www.w3.org/1999/xlink" x="0px" y="0px"
	 width="481.7px" height="566.9px" viewBox="0 0 481.7 566.9" style="enable-background:new 0 0 481.7 566.9;" xml:space="preserve"
	>
<g>
	<g>
		<path d="M37.5,464.8c0,11.3,9.1,20.4,20.4,20.4h366.5c11.3,0,20.4-9.1,20.4-20.4V316c0-112.5-91.2-203.7-203.7-203.7
			S37.5,203.5,37.5,316V464.8z M83.5,316c0-87.1,70.6-157.7,157.7-157.7S398.8,228.9,398.8,316v123.2H172.2V330.1
			c0-3.5-2.9-6.4-6.4-6.4h-28.1c-3.5,0-6.4,2.9-6.4,6.4v109.2H83.5V316z M52.7,154.8L78,129.5c2-2,2-5.2,0-7.2L34.7,79
			c-2-2-5.2-2-7.2,0L2.2,104.3c-2,2-2,5.2,0,7.2l43.4,43.3C47.5,156.8,50.7,156.8,52.7,154.8L52.7,154.8z M480.2,104.3L455,79
			c-2-2-5.2-2-7.2,0l-43.4,43.3c-2,2-2,5.2,0,7.2l25.3,25.3c2,2,5.2,2,7.2,0l43.3-43.3C482.2,109.4,482.2,106.2,480.2,104.3
			L480.2,104.3z M445.5,526.1H36.9c-11.3,0-20.4,9.1-20.4,20.4v15.3c0,2.8,2.3,5.1,5.1,5.1h439.2c2.8,0,5.1-2.3,5.1-5.1v-15.3
			C465.9,535.2,456.8,526.1,445.5,526.1L445.5,526.1z M223.3,71.5H259c2.8,0,5.1-2.3,5.1-5.1V5.1c0-2.8-2.3-5.1-5.1-5.1h-35.8
			c-2.8,0-5.1,2.3-5.1,5.1v61.3C218.2,69.2,220.5,71.5,223.3,71.5L223.3,71.5z M223.3,71.5"/>
	</g>
</g>
</svg>
