<?xml version="1.0" standalone="no"?><!DOCTYPE svg PUBLIC "-//W3C//DTD SVG 1.1//EN" "http://www.w3.org/Graphics/SVG/1.1/DTD/svg11.dtd"><svg t="1532311071218" style="" viewBox="0 0 1024 1024" version="1.1" xmlns="http://www.w3.org/2000/svg" p-id="7885" xmlns:xlink="http://www.w3.org/1999/xlink" width="200" height="200"><defs><style type="text/css"></style></defs><path d="M147.00032 114.00192h680.00256v315.60192h50.00192V64H96.9984v896h307.59936v-50.00192H147.00032V114.00192z" fill="" p-id="7886"></path><path d="M236.99968 601.20064h107.60192v50.00192H236.99968zM236.99968 281.00096h499.99872v50.00192H236.99968zM236.99968 441.09824h167.59808v50.00192H236.99968zM456.07424 627.87584a9.728 9.728 0 0 0-13.65504 0c-21.10976 21.10464-32.69632 49.24928-32.69632 79.04768s11.59168 57.93792 32.69632 79.4624c2.06848 2.06848 4.55168 2.8928 7.03488 2.8928s4.9664-0.82432 7.04-2.8928a9.74336 9.74336 0 0 0 0-13.65504c-17.79712-17.80224-27.3152-40.97536-27.3152-65.80736 0-24.83712 9.51808-48.01536 27.3152-65.39264 3.30752-3.72736 3.30752-9.93792-0.41984-13.65504z" fill="" p-id="7887"></path><path d="M490.01472 766.92992c2.4832 0 4.9664-0.82432 7.03488-2.88768a9.74336 9.74336 0 0 0 0-13.66016 63.45216 63.45216 0 0 1 0-89.81504c3.72736-3.72224 3.72736-9.92768 0-13.65504s-9.9328-3.72736-13.65504 0c-32.28672 32.2816-32.28672 84.84352 0 117.13024 1.65376 2.06336 4.13696 2.88768 6.62016 2.88768zM957.696 627.87584a9.728 9.728 0 0 0-13.65504 0 9.73312 9.73312 0 0 0 0 13.65504c17.38752 17.3824 27.3152 40.97024 27.3152 65.39264 0 24.832-9.51296 48.00512-27.3152 65.38752a9.73312 9.73312 0 0 0 7.03488 16.55296c2.48832 0 4.9664-0.82432 7.03488-2.89792 21.10976-21.10464 32.70144-49.24416 32.70144-79.46752-0.41984-29.37344-12.0064-57.51808-33.11616-78.62272z" fill="" p-id="7888"></path><path d="M903.0656 646.912a9.74336 9.74336 0 0 0 0 13.65504 63.44704 63.44704 0 0 1 0 89.81504 9.74848 9.74848 0 0 0 0 13.66016c2.0736 2.06336 4.5568 2.88768 7.04 2.88768s4.9664-0.82432 7.02976-2.88768c32.28672-32.28672 32.28672-84.84864 0-117.13024-4.13696-3.72736-9.9328-3.72736-14.06976 0z" fill="" p-id="7889"></path><path d="M932.864 869.5808c-45.11232-44.70272-67.87584-97.67936-67.87584-157.69088v-86.92224c0.41472-66.22208-44.28288-110.50496-82.36032-127.88736a205.2864 205.2864 0 0 0-33.9456-11.59168v-5.38112c0-26.48576-21.51936-48.42496-48.42496-48.42496-26.48576 0-48.41984 21.52448-48.41984 48.42496v6.21056a208.384 208.384 0 0 0-30.62272 11.17184c-42.2144 19.45088-85.26336 66.6368-85.67296 127.89248v86.912c0 61.6704-21.93408 115.06688-64.97792 157.69088-2.4832 2.4832-3.30752 6.21056-2.4832 9.9328 1.24416 3.31264 4.14208 6.20544 7.4496 6.62528l91.88352 15.72352c16.96768 2.89792 32.69632 5.376 48.01024 7.4496 16.96768 33.11104 50.07872 54.21568 86.49728 54.21568 36.4288 0 69.53984-21.10464 86.50752-54.21568a1564.8768 1564.8768 0 0 0 47.5904-7.4496l91.88352-15.72352c3.72736-0.41984 6.62016-3.30752 7.4496-6.62528 0.82432-3.71712 0-7.8592-2.48832-10.33728z m-261.98528-389.88288c0-16.13824 12.83072-28.96896 28.96896-28.96896s28.97408 12.83072 28.97408 28.96896v1.65888c-19.456-2.89792-38.90688-2.4832-57.94304 0.41472v-2.0736z m31.03744 464.7936c-24.41216 0-47.5904-12.0064-62.07488-32.28672 21.51936 2.06848 41.79968 3.31264 62.07488 3.31264 20.28544 0 40.56576-1.24416 62.08512-3.31264-14.8992 19.87072-37.66272 32.28672-62.08512 32.28672z m64.98304-390.7072c-2.06848 4.9664-7.86432 7.03488-12.83072 4.9664-32.28672-14.8992-72.42752-14.8992-104.70912 0-16.96768 7.86432-45.94176 30.62784-46.35648 66.22208 0 5.38624-4.55168 9.5232-9.51808 9.5232-5.38112 0-9.5232-4.5568-9.5232-9.9328 0.41984-45.11744 36.42368-73.67168 57.53344-83.59936 37.248-17.38752 83.18976-16.9728 120.85248 0 4.55168 2.47808 7.03488 7.85408 4.55168 12.82048z" fill="" p-id="7890"></path></svg>