<?xml version="1.0" encoding="utf-8"?>
<!-- Generator: Adobe Illustrator 23.0.2, SVG Export Plug-In . SVG Version: 6.00 Build 0)  -->
<svg version="1.1" id="图层_1" xmlns="http://www.w3.org/2000/svg" xmlns:xlink="http://www.w3.org/1999/xlink" x="0px" y="0px"
	 width="566.9px" height="503.9px" viewBox="0 0 566.9 503.9" style="enable-background:new 0 0 566.9 503.9;" xml:space="preserve"
	>
<g>
	<g>
		<path d="M284,164.7c-12.7,0-23,10.3-23,23v115.1c0,12.7,10.3,23,23,23c12.7,0,23-10.3,23-23V187.7C307,175,296.7,164.7,284,164.7
			 M284,371.9c-12.7,0-23,10.3-23,23c0,12.7,10.3,23,23,23c12.7,0,23-10.3,23-23C307,382.2,296.7,371.9,284,371.9"/>
		<path d="M422.1,457.9H54l91.8-159.6l23.9-41.5L284,58l114.3,198.7l23.9,41.5l91.8,159.6H422.1z M562.1,449.3L315.5,20.5
			C308.2,7.8,296.7,0.6,284,0.6c-12.8,0-24.3,7.3-31.5,19.9L5.8,449.3c-7.2,12.6-7.8,26.2-1.4,37.3c6.4,11,18.4,17.4,33,17.4h493.1
			c14.5,0,26.5-6.3,32.9-17.4C569.8,475.5,569.3,461.9,562.1,449.3L562.1,449.3z M562.1,449.3"/>
	</g>
</g>
</svg>
