<?xml version="1.0" standalone="no"?><!DOCTYPE svg PUBLIC "-//W3C//DTD SVG 1.1//EN" "http://www.w3.org/Graphics/SVG/1.1/DTD/svg11.dtd"><svg t="1532316173870" style="" viewBox="0 0 1024 1024" version="1.1" xmlns="http://www.w3.org/2000/svg" p-id="7998" xmlns:xlink="http://www.w3.org/1999/xlink" width="200" height="200"><defs><style type="text/css"></style></defs><path d="M512 588.8m-76.8 0a76.8 76.8 0 1 0 153.6 0 76.8 76.8 0 1 0-153.6 0Z" p-id="7999"></path><path d="M988.16 773.12L599.04 143.36c-40.96-66.56-138.24-66.56-179.2 0L35.84 773.12c-40.96 66.56 5.12 158.72 87.04 158.72h773.12c81.92 0 133.12-87.04 92.16-158.72zM665.6 609.28c5.12 5.12 10.24 10.24 20.48 15.36 0 0 5.12 0 5.12 5.12 5.12 0 5.12 5.12 5.12 10.24v10.24c0 5.12 0 10.24-5.12 15.36 0 5.12-5.12 10.24-5.12 10.24 0 5.12-5.12 5.12-10.24 10.24H665.6h-40.96c-5.12 0-5.12 5.12-10.24 5.12-5.12 5.12-10.24 15.36-10.24 20.48 0 10.24 0 15.36 5.12 25.6v15.36l-5.12 5.12c-5.12 0-5.12 5.12-10.24 5.12s-10.24 5.12-10.24 5.12h-10.24s-5.12 0-5.12-5.12l-5.12-5.12c-5.12-10.24-5.12-15.36-15.36-20.48-5.12-5.12-15.36-10.24-25.6-10.24s-15.36 5.12-25.6 10.24c-5.12 5.12-10.24 10.24-15.36 20.48 0 5.12-5.12 5.12-5.12 5.12-10.24 5.12-15.36 5.12-15.36 5.12h-10.24c-5.12 0-10.24-5.12-15.36-5.12-5.12 0-10.24-5.12-10.24-5.12l-10.24-10.24v-5.12s0-5.12 5.12-10.24 5.12-10.24 5.12-20.48c0-5.12-5.12-15.36-10.24-20.48-5.12-5.12-10.24-5.12-15.36-5.12h-15.36c-5.12 0-10.24 0-15.36 5.12H358.4c-5.12 0-5.12-5.12-10.24-5.12 0-5.12-5.12-10.24-5.12-10.24 0-5.12-5.12-10.24-5.12-15.36v-10.24c0-5.12 5.12-10.24 10.24-10.24 10.24-5.12 15.36-10.24 20.48-15.36 5.12-5.12 10.24-15.36 10.24-25.6s-5.12-15.36-10.24-25.6c-5.12-5.12-15.36-10.24-20.48-15.36l-5.12-5.12v-10.24-10.24c0-5.12 0-10.24 5.12-10.24 0-5.12 5.12-5.12 5.12-10.24s5.12-5.12 5.12-5.12h10.24c10.24 5.12 15.36 5.12 25.6 5.12s15.36-5.12 20.48-10.24c-5.12-20.48 0-25.6 0-30.72 0-5.12 0-10.24 5.12-15.36v-10.24-10.24-5.12-5.12c0-5.12 5.12-5.12 10.24-10.24 0 0 5.12 0 5.12-5.12H460.8c5.12 0 5.12 0 10.24 5.12l5.12 5.12c5.12 5.12 5.12 15.36 15.36 20.48 5.12 0 10.24 5.12 20.48 5.12s15.36 0 25.6-5.12c5.12-5.12 10.24-10.24 15.36-20.48l5.12-5.12 5.12-5.12h10.24c5.12 0 10.24 0 10.24 5.12 5.12 0 10.24 5.12 10.24 5.12l10.24 10.24v10.24c-5.12 5.12-5.12 15.36-5.12 25.6s5.12 15.36 10.24 20.48c5.12 5.12 15.36 10.24 20.48 10.24 10.24 0 15.36 0 25.6-5.12h5.12c5.12 0 5.12 0 5.12 5.12 5.12 5.12 5.12 10.24 10.24 15.36 5.12 5.12 5.12 15.36 5.12 20.48v10.24l-5.12 5.12c-10.24 5.12-15.36 10.24-20.48 15.36-5.12 5.12-10.24 15.36-10.24 25.6 10.24 5.12 15.36 15.36 20.48 20.48z" p-id="8000"></path></svg>