<?xml version="1.0" encoding="utf-8"?>
<!-- Generator: Adobe Illustrator 23.0.2, SVG Export Plug-In . SVG Version: 6.00 Build 0)  -->
<svg version="1.1" id="图层_1" xmlns="http://www.w3.org/2000/svg" xmlns:xlink="http://www.w3.org/1999/xlink" x="0px" y="0px"
	 width="566.9px" height="566.9px" viewBox="0 0 566.9 566.9" style="enable-background:new 0 0 566.9 566.9;" xml:space="preserve"
	>
<style type="text/css">
	.st0{clip-path:url(#SVGID_2_);}
</style>
<g>
	<g>
		<defs>
			<rect id="SVGID_1_" width="566.9" height="566.9"/>
		</defs>
		<clipPath id="SVGID_2_">
			<use xlink:href="#SVGID_1_"  style="overflow:visible;"/>
		</clipPath>
		<path class="st0" d="M477.2,99.1c-5.5-3.7-12.3-5-18.7-3.5c-6.4,1.5-12,5.6-15.5,11.3c-7.5,12-4.2,28,7.2,36
			c2.7,1.9,66.5,47.5,66.5,160.9c0,113.7-61.2,159.3-63.7,161c-11.5,8.1-14.6,24.3-6.9,36.3c3.6,5.7,9.3,9.7,15.8,11
			c6.5,1.4,13.2,0,18.7-3.8c3.5-2.4,85.9-61.6,85.9-204.5C566.6,160.7,480.9,101.5,477.2,99.1"/>
		<path class="st0" d="M399.6,175.8c-5.9-2.9-12.7-3.2-18.9-0.9c-6.2,2.3-11.2,7-14,13.2c-5.9,12.9-0.9,28.3,11.4,34.8
			c1.6,0.9,38.9,21.2,38.9,79.1c0,61.8-34.9,82.3-36.1,83c-12.4,6.6-17.3,22.2-11.2,35.1c2.9,6.1,8.1,10.8,14.4,13
			c6.3,2.2,13.2,1.7,19.1-1.3c2.6-1.4,63.6-34.5,63.6-129.7C466.9,210,402.3,177.2,399.6,175.8 M286.2,490.9l-52-48.8l-85.2-80
			c-4.8-4.5-11.1-7-17.5-7l-79.4,0l-0.3-172.5h104.5c8,1.5,16.3-0.9,22.3-6.5l55.5-52.1l52-48.8L286.2,490.9L286.2,490.9
			L286.2,490.9z M317.1,3.1c-6.4-2.9-23.2-7.8-41.6,9.6l-41.3,38.8l-82.6,77.5H51.8C23.1,129.1,0,153.1,0,182.6v172.5
			c0,29.6,23.2,53.7,51.8,53.7h69.6l112.8,105.8l41.4,38.8c10.4,9.8,20.3,12.5,28.1,12.5c6,0,10.8-1.6,13.6-2.9
			c6.4-2.9,21.1-12.4,21.1-38.1V41.1C338.3,23.3,330.4,9.1,317.1,3.1L317.1,3.1z M317.1,3.1"/>
	</g>
</g>
</svg>
