<?xml version="1.0" standalone="no"?><!DOCTYPE svg PUBLIC "-//W3C//DTD SVG 1.1//EN" "http://www.w3.org/Graphics/SVG/1.1/DTD/svg11.dtd"><svg t="1540359457322" style="" viewBox="0 0 1024 1024" version="1.1" xmlns="http://www.w3.org/2000/svg" p-id="2699" xmlns:xlink="http://www.w3.org/1999/xlink" width="200" height="200"><defs><style type="text/css"></style></defs><path d="M950.800896 512.032768q0 89.137152-34.854912 170.274816t-93.708288 139.99104-139.99104 93.708288-170.274816 34.854912-170.274816-34.854912-139.99104-93.708288-93.708288-139.99104-34.854912-170.274816q0-103.993344 45.997056-195.987456t129.420288-154.27584q24.569856-18.284544 54.567936-14.2848t47.711232 28.5696q18.284544 23.998464 13.999104 53.996544t-28.283904 48.282624q-55.996416 42.283008-86.565888 103.421952t-30.569472 130.277376q0 59.424768 23.141376 113.421312t62.567424 93.422592 93.422592 62.567424 113.421312 23.141376 113.421312-23.141376 93.422592-62.567424 62.567424-93.422592 23.141376-113.421312q0-69.138432-30.569472-130.277376t-86.565888-103.421952q-23.998464-18.284544-28.283904-48.282624t13.999104-53.996544q17.713152-24.569856 47.996928-28.5696t54.28224 14.2848q83.423232 62.281728 129.420288 154.27584t45.997056 195.987456zm-365.69088-438.829056l0 365.69088q0 29.712384-21.712896 51.42528t-51.42528 21.712896-51.42528-21.712896-21.712896-51.42528l0-365.69088q0-29.712384 21.712896-51.42528t51.42528-21.712896 51.42528 21.712896 21.712896 51.42528z" p-id="2700"></path></svg>