<svg xmlns="http://www.w3.org/2000/svg" viewBox="0 0 392.92 410.43"><g id="图层_2" data-name="图层 2"><g id="裁剪标记"><path d="M254.48,100.45,239.27,128a6.06,6.06,0,0,0-.74,2.57,6.16,6.16,0,0,0,.42,2.53,5.76,5.76,0,0,0,1.24,1.92,5.39,5.39,0,0,0,1.71,1.18C285.06,155.13,368,199.32,376.11,282.37c27-58.23,21.54-129.28-16.65-179.77L378,69A14.69,14.69,0,0,0,379.31,58,14,14,0,0,0,373,49.57l-8.75-5.27a205.06,205.06,0,0,0-36.83-17.92c-31.12-11.09-63.21-10.25-92.21,7.26-24.64,14.89-43.73,39.85-57,68.48a136.07,136.07,0,0,1,96.39-12.63,5.31,5.31,0,0,1,3.71,3.4,5.64,5.64,0,0,1-.84,5.35,5.32,5.32,0,0,1-2.15,1.64,4.8,4.8,0,0,1-3,.26,123.84,123.84,0,0,0-12.7-2.38A5.17,5.17,0,0,0,254.48,100.45Z"/><path d="M296.75,265.83l-26.36-15.89a5.33,5.33,0,0,0-2.45-.77,5.42,5.42,0,0,0-2.42.43,5.76,5.76,0,0,0-1.85,1.3,6,6,0,0,0-1.13,1.78c-18.13,45.08-60.44,131.68-139.94,140.2,55.74,28.16,123.76,22.5,172.1-17.39l32.15,19.37a12.91,12.91,0,0,0,10.57,1.36,13.54,13.54,0,0,0,8-6.56l5.06-9.14A224,224,0,0,0,367.66,342c10.62-32.49,9.82-66-7-96.3-14.26-25.75-38.14-45.69-65.56-59.53a153.7,153.7,0,0,1,12.11,100.68,5.42,5.42,0,0,1-3.27,3.88,5.06,5.06,0,0,1-5.12-.88,5.5,5.5,0,0,1-1.57-2.23,5.43,5.43,0,0,1-.25-3.18c1-4.39,1.73-8.82,2.28-13.26A5.51,5.51,0,0,0,296.75,265.83Z"/><path d="M138.43,310l15.22-27.53a5.91,5.91,0,0,0,.73-2.57,6.13,6.13,0,0,0-.41-2.52,5.58,5.58,0,0,0-1.25-1.93,5.33,5.33,0,0,0-1.71-1.18C107.86,255.3,25,211.1,16.81,128.07c-27,58.22-21.55,129.28,16.65,179.77L14.89,341.42a14.76,14.76,0,0,0-1.29,11.05,14.05,14.05,0,0,0,6.28,8.39l8.76,5.28a206.41,206.41,0,0,0,36.83,17.92c31.11,11.08,63.21,10.25,92.2-7.27,24.65-14.9,43.73-39.84,57-68.49A136,136,0,0,1,118.27,321a5.3,5.3,0,0,1-3.71-3.41,5.62,5.62,0,0,1,.84-5.34,5.31,5.31,0,0,1,2.14-1.65,5,5,0,0,1,3-.26,121,121,0,0,0,12.69,2.38A5.17,5.17,0,0,0,138.43,310Z"/><path d="M96.16,144.6l26.35,15.9a5.38,5.38,0,0,0,2.47.76,5.22,5.22,0,0,0,2.41-.43,5.37,5.37,0,0,0,1.85-1.3,5.76,5.76,0,0,0,1.13-1.78c18.14-45.08,60.45-131.68,140-140.19C214.57-10.6,146.55-4.95,98.22,35L66.07,15.57a13,13,0,0,0-10.58-1.36,13.61,13.61,0,0,0-8,6.56L42.4,29.91A223.26,223.26,0,0,0,25.25,68.39c-10.62,32.5-9.81,66,7,96.31,14.26,25.75,38.14,45.68,65.56,59.52a153.6,153.6,0,0,1-12.1-100.67,5.38,5.38,0,0,1,3.26-3.88,5,5,0,0,1,5.12.88,5.43,5.43,0,0,1,1.57,2.23,5.51,5.51,0,0,1,.26,3.18,133.1,133.1,0,0,0-2.28,13.26A5.5,5.5,0,0,0,96.16,144.6Z"/></g></g></svg>
