<?xml version="1.0" standalone="no"?><!DOCTYPE svg PUBLIC "-//W3C//DTD SVG 1.1//EN" "http://www.w3.org/Graphics/SVG/1.1/DTD/svg11.dtd"><svg t="1565533574378" class="icon" viewBox="0 0 1024 1024" version="1.1" xmlns="http://www.w3.org/2000/svg" p-id="1786" xmlns:xlink="http://www.w3.org/1999/xlink" width="128" height="128"><defs><style type="text/css"></style></defs><path d="M863.779855 0H160.039513C70.446287 0 0 70.446287 0 160.039513v703.920974c0 89.593226 70.446287 160.039513 160.039513 160.039513h703.920974c89.593226 0 160.039513-70.446287 160.039513-160.039513V160.039513C1023.819368 70.446287 953.373082 0 863.779855 0z m96.095961 863.960487c0 54.370083-41.545246 95.915329-95.915329 95.915329H160.039513c-54.370083 0-95.915329-41.545246-95.915329-95.915329V160.039513c0-54.370083 41.545246-95.915329 95.915329-95.915329h703.920974c54.370083 0 95.915329 41.545246 95.915329 95.915329v703.920974z" p-id="1787"></path><path d="M767.864526 480.118539h-223.983065V255.954842c0-19.327571-12.824837-31.971776-31.971777-31.971776-19.327571 0-31.971776 12.824837-31.971776 31.971776v223.983066h-223.983066c-19.327571 0-31.971776 12.824837-31.971776 31.971776 0 19.327571 12.824837 31.971776 31.971776 31.971777h223.983066v223.983065c0 19.327571 12.824837 31.971776 31.971776 31.971777 19.327571 0 31.971776-12.824837 31.971777-31.971777v-223.983065h223.983065c19.327571 0 31.971776-12.824837 31.971777-31.971777s-12.644205-31.791145-31.971777-31.791145z" p-id="1788"></path></svg>