<?xml version="1.0" standalone="no"?><!DOCTYPE svg PUBLIC "-//W3C//DTD SVG 1.1//EN" "http://www.w3.org/Graphics/SVG/1.1/DTD/svg11.dtd"><svg t="1548304589330" style="" viewBox="0 0 1024 1024" version="1.1" xmlns="http://www.w3.org/2000/svg" p-id="3684" xmlns:xlink="http://www.w3.org/1999/xlink" width="200" height="200"><defs><style type="text/css"></style></defs><path d="M96.4 116.9l80.6 80.6c80.7-81.3 192.5-131.8 316.1-132 246.2-0.5 447.3 199.7 447.7 445.9C941.2 758.5 741 959 494 959c-131.9 0-250.4-57.1-332.2-148-37.2-41.4-7.9-107.4 47.8-107.9 18.5-0.2 36.2 7.5 48.5 21.2 58.1 64.5 142.3 105.1 235.9 105.1 176.1 0 318.8-143.5 317.3-320-1.5-176.2-145.1-316.6-321.4-314.4-86.6 1.1-164.8 36.9-221.4 94.1l79.6 79.6c11.8 11.8 3.4 31.9-13.2 31.9H83.2c-10.3 0-18.7-8.3-18.7-18.7V130.1c0-16.6 20.1-25 31.9-13.2z" p-id="3685"></path></svg>