<?xml version="1.0" standalone="no"?><!DOCTYPE svg PUBLIC "-//W3C//DTD SVG 1.1//EN" "http://www.w3.org/Graphics/SVG/1.1/DTD/svg11.dtd"><svg t="1548304597604" style="" viewBox="0 0 1024 1024" version="1.1" xmlns="http://www.w3.org/2000/svg" p-id="3808" xmlns:xlink="http://www.w3.org/1999/xlink" width="200" height="200"><defs><style type="text/css"></style></defs><path d="M940.8 130.1v251.8c0 10.4-8.4 18.7-18.7 18.7H670.4c-16.6 0-25-20.1-13.2-31.9l79.6-79.6c-56.6-57.2-134.8-93-221.4-94.1-176.3-2.2-319.9 138.2-321.4 314.4-1.5 176.5 141.2 320 317.3 320 93.6 0 177.8-40.6 235.9-105.1 12.3-13.7 30-21.4 48.5-21.2 55.7 0.5 85 66.5 47.8 107.9-81.8 90.9-200.3 148-332.2 148-247 0-447.2-200.5-446.8-447.6C64.9 265.2 266 65 512.2 65.5c123.6 0.2 235.4 50.7 316.1 132l80.6-80.6c11.8-11.8 31.9-3.4 31.9 13.2z" p-id="3809"></path></svg>