<?xml version="1.0" standalone="no"?><!DOCTYPE svg PUBLIC "-//W3C//DTD SVG 1.1//EN" "http://www.w3.org/Graphics/SVG/1.1/DTD/svg11.dtd"><svg t="1531967498011" style="" viewBox="0 0 1024 1024" version="1.1" xmlns="http://www.w3.org/2000/svg" p-id="7608" xmlns:xlink="http://www.w3.org/1999/xlink" width="200" height="200"><defs><style type="text/css"></style></defs><path d="M268.5952 621.7728a136.4992 136.4992 0 1 0 137.728 136.4992 137.2672 137.2672 0 0 0-137.728-136.4992z m0 226.816a90.3168 90.3168 0 1 1 91.136-90.3168 90.8288 90.8288 0 0 1-91.136 90.2656z" p-id="7609"></path><path d="M897.3824 714.5984a127.1296 127.1296 0 0 0-122.88 94.3616h-77.2096V489.0112h81.4592a126.9248 126.9248 0 1 0-4.608-75.5712h-259.6352V250.88a126.9248 126.9248 0 1 0-75.264-3.4304v270.2848h75.264v-28.7232h107.52V808.96h-85.248v-104.704l-58.6752-9.8304a212.8384 212.8384 0 0 0-16.128-38.2464l34.816-48.2304-76.8-76.288-48.6912 34.5088a216.7296 216.7296 0 0 0-38.5024-15.9232l-10.24-58.112H213.7088l-9.5232 58.5216a217.6 217.6 0 0 0-38.5536 15.9744l-48.6912-34.5088-76.8 76.288 34.816 48.2304a212.8896 212.8896 0 0 0-16.128 38.2464L0 704.6656v107.9296l58.6752 9.8304a213.0944 213.0944 0 0 0 16.128 38.2464l-34.8672 48.2816 76.8 75.4688 48.64-34.5088a216.9856 216.9856 0 0 0 38.6048 15.9744L214.1184 1024h108.9024L332.8 965.888a216.6784 216.6784 0 0 0 38.6048-15.9744l48.6912 34.5088 76.8-76.288-34.816-48.2304a212.8896 212.8896 0 0 0 16.128-38.2464l58.2656-9.4208v74.752h242.1248a126.9248 126.9248 0 1 0 118.4768-172.3904z m0-332.1344a61.44 61.44 0 1 1-61.44 61.44 61.44 61.44 0 0 1 61.44-61.44z m-414.72-192.768a61.44 61.44 0 1 1 61.44-61.44 61.44 61.44 0 0 1-61.696 61.44zM490.5472 773.12L440.32 781.3632l-3.2768 15.36A169.5744 169.5744 0 0 1 414.72 849.1008l-8.2432 13.056 29.3888 40.96-21.1456 21.4016-41.472-29.1328-13.2096 8.192a167.3728 167.3728 0 0 1-52.9408 21.6576l-15.36 3.2768-8.2944 49.7664h-30.2592l-8.2944-49.7664-15.36-3.2256a181.2992 181.2992 0 0 1-53.0944-21.7088l-13.1584-8.1408-41.472 29.1328-21.504-21.2992 29.3888-40.96-8.2432-13.1072a171.7248 171.7248 0 0 1-22.2208-52.4288l-3.2768-15.36L45.824 773.12v-29.696l50.176-8.2432 3.2768-15.36a169.6768 169.6768 0 0 1 22.272-52.6336l8.2432-13.056-29.3888-40.96 21.504-21.2992 41.472 29.1328 13.2096-8.192a174.9504 174.9504 0 0 1 52.9408-22.016l15.36-3.2768 8.2944-49.7152h30.0032l8.2944 49.7152 15.36 3.2256a172.8 172.8 0 0 1 53.0944 22.0672l13.1584 8.1408 41.472-29.1328 21.504 21.2992-29.3888 40.96 8.0384 13.3632a171.7248 171.7248 0 0 1 22.2208 52.4288l3.2768 15.36 50.176 8.2432z m406.8352 129.792a61.44 61.44 0 1 1 61.44-61.44 61.44 61.44 0 0 1-61.44 61.44z" p-id="7610"></path></svg>