<?xml version="1.0" standalone="no"?><!DOCTYPE svg PUBLIC "-//W3C//DTD SVG 1.1//EN" "http://www.w3.org/Graphics/SVG/1.1/DTD/svg11.dtd"><svg t="1531967339677" style="" viewBox="0 0 1024 1024" version="1.1" xmlns="http://www.w3.org/2000/svg" p-id="4577" xmlns:xlink="http://www.w3.org/1999/xlink" width="200" height="200"><defs><style type="text/css"></style></defs><path d="M841.142857 896c-80.457143 0-146.285714-65.828571-146.285714-146.285714 0-36.571429 14.628571-69.485714 36.571428-95.085715l-135.314285-135.314285c-21.942857 7.314286-43.885714 10.971429-69.485715 10.971428s-47.542857-3.657143-69.485714-10.971428L365.714286 614.4c43.885714 36.571429 73.142857 91.428571 73.142857 153.6 0 109.714286-91.428571 201.142857-201.142857 201.142857S36.571429 877.714286 36.571429 768s91.428571-201.142857 201.142857-201.142857c21.942857 0 43.885714 3.657143 65.828571 10.971428l91.428572-91.428571C332.8 446.171429 292.571429 373.028571 292.571429 292.571429c0-131.657143 106.057143-237.714286 237.714285-237.714286S768 160.914286 768 292.571429c0 80.457143-40.228571 153.6-102.4 193.828571l124.342857 124.342857c14.628571-7.314286 32.914286-10.971429 51.2-10.971428 80.457143 0 146.285714 65.828571 146.285714 146.285714s-65.828571 149.942857-146.285714 149.942857z m-603.428571-256C168.228571 640 109.714286 698.514286 109.714286 768s58.514286 128 128 128S365.714286 837.485714 365.714286 768s-58.514286-128-128-128z m292.571428-512C438.857143 128 365.714286 201.142857 365.714286 292.571429s73.142857 164.571429 164.571428 164.571428S694.857143 384 694.857143 292.571429s-73.142857-164.571429-164.571429-164.571429z m310.857143 548.571429c-40.228571 0-73.142857 32.914286-73.142857 73.142857s32.914286 73.142857 73.142857 73.142857 73.142857-32.914286 73.142857-73.142857-32.914286-73.142857-73.142857-73.142857z" p-id="4578"></path></svg>