<svg viewBox="0 0 1024 1024" xmlns="http://www.w3.org/2000/svg" xmlns:xlink="http://www.w3.org/1999/xlink"><path d="M512.04096 916.55168c252.69248 0 458.28096-205.57824 458.28096-458.28096S764.73344 0 512.04096 0 53.76 205.57824 53.76 458.28096s205.58848 458.27072 458.28096 458.27072z m0-859.66848c221.3376 0 401.408 180.06016 401.408 401.408s-180.06016 401.408-401.408 401.408-401.408-180.06016-401.408-401.408 180.0704-401.39776 401.408-401.39776z"></path><path d="M512.04096 673.18784c118.69184 0 214.91712-96.256 214.91712-214.91712s-96.22528-214.91712-214.91712-214.91712-214.91712 96.256-214.91712 214.91712 96.22528 214.91712 214.91712 214.91712z m-71.68-358.1952a71.68 71.68 0 1 1-71.68 71.68 71.68 71.68 0 0 1 71.68-71.68zM920.17664 820.5312a28.45696 28.45696 0 1 0-28.23168 49.38752c16.47616 9.4208 21.1968 16.60928 21.504 18.05312-3.91168 21.80096-133.33504 79.13472-401.408 79.13472s-397.47584-57.344-401.408-78.848c0.33792-1.75104 5.05856-8.93952 21.504-18.36032a28.45696 28.45696 0 1 0-28.28288-49.38752c-33.28 19.05664-50.176 41.80992-50.176 67.584 0 107.52 299.776 135.8848 458.28096 135.8848S970.24 995.59424 970.24 888.09472c0.08192-25.76384-16.78336-48.50688-50.06336-67.56352z"></path></svg>