<svg t="1524808547341" viewBox="0 0 1025 1024" version="1.1" xmlns="http://www.w3.org/2000/svg" p-id="36559" xmlns:xlink="http://www.w3.org/1999/xlink" width="200.1953125" height="200"><defs><style type="text/css"></style></defs><path d="M456.683762 856.682482 258.767296 856.682482c-31.780398 0-57.635116-25.854718-57.635116-57.635116l0-565.496969c0-31.780398 25.854718-57.635116 57.635116-57.635116l54.312927 0c0.068594 0 0.13514-0.004095 0.203734-0.005119 9.966567 23.263513 33.08675 39.605202 59.956041 39.605202l228.918785 0c26.884648 0 50.015069-16.359093 59.973446-39.644106 0.482204 0.027642 0.967479 0.044023 1.455825 0.044023l49.97207 0c31.780398 0 57.635116 25.854718 57.635116 57.635116l0 346.563179c0 14.135428 11.459248 25.594676 25.594676 25.594676 14.136452 0 25.594676-11.459248 25.594676-25.594676l0-346.563179c0-60.006207-48.819286-108.824469-108.824469-108.824469l-49.97207 0c-0.48937 0-0.973621 0.016381-1.455825 0.044023-9.957353-23.285013-33.088798-39.64513-59.973446-39.64513l-228.918785 0c-26.869291 0-49.989474 16.341689-59.956041 39.606226-0.06757 0-0.13514-0.005119-0.203734-0.005119l-54.312927 0c-60.005183 0-108.824469 48.818262-108.824469 108.824469l0 565.496969c0 60.006207 48.819286 108.824469 108.824469 108.824469l197.915442 0c14.136452 0 25.594676-11.459248 25.594676-25.594676S470.81919 856.682482 456.683762 856.682482zM373.239998 115.839457l228.918785 0c19.012749 0 34.481148 15.468399 34.481148 34.482172 0 19.012749-15.467375 34.481148-34.481148 34.481148l-228.918785 0c-19.012749 0-34.481148-15.468399-34.481148-34.481148C338.75885 131.307856 354.226225 115.839457 373.239998 115.839457z" p-id="36560"></path><path d="M848.134884 704.440228c-8.481052 0-15.356806 6.875754-15.356806 15.356806l0 168.880841c0 10.743621-8.74007 19.483691-19.482668 19.483691l-246.817654 0c-10.743621 0-19.483691-8.74007-19.483691-19.483691l0-194.552301c0-10.743621 8.74007-19.483691 19.483691-19.483691L762.276007 674.641882c8.481052 0 15.356806-6.875754 15.356806-15.356806s-6.875754-15.356806-15.356806-15.356806l-195.79825 0c-27.679107 0-50.197303 22.518196-50.197303 50.197303l0 194.552301c0 27.679107 22.518196 50.197303 50.197303 50.197303l246.817654 0c27.678083 0 50.196279-22.518196 50.196279-50.197303l0-168.880841C863.49169 711.315982 856.615936 704.440228 848.134884 704.440228z" p-id="36561"></path><path d="M861.696991 599.03009c-7.437813-4.081839-16.771679-1.359589-20.851471 6.074129l-120.861133 220.230928-43.601043-109.10601c-3.146098-7.873946-12.076592-11.707005-19.958729-8.561931-7.87497 3.147121-11.709053 12.083759-8.560907 19.959752l55.526115 138.947355c2.400781 6.007582 8.168797 9.662502 14.265449 9.662502 1.896054 0 3.824868-0.35423 5.694304-1.100571 4.654136-1.860221 7.880089-5.746517 9.103514-10.236847 1.138451-1.073953 2.136644-2.335258 2.931102-3.780846l132.388975-241.236991C871.851935 612.445795 869.132756 603.109881 861.696991 599.03009z" p-id="36562"></path><path d="M574.369107 276.736807l-275.177579 0c-8.481052 0-15.356806 6.875754-15.356806 15.356806s6.875754 15.356806 15.356806 15.356806l275.177579 0c8.481052 0 15.356806-6.875754 15.356806-15.356806S582.850159 276.736807 574.369107 276.736807z" p-id="36563"></path><path d="M669.974437 276.736807l-28.168477 0c-8.481052 0-15.356806 6.875754-15.356806 15.356806s6.875754 15.356806 15.356806 15.356806l28.168477 0c8.481052 0 15.356806-6.875754 15.356806-15.356806S678.456513 276.736807 669.974437 276.736807z" p-id="36564"></path><path d="M574.369107 410.145474l-275.177579 0c-8.481052 0-15.356806 6.875754-15.356806 15.356806s6.875754 15.356806 15.356806 15.356806l275.177579 0c8.481052 0 15.356806-6.875754 15.356806-15.356806S582.850159 410.145474 574.369107 410.145474z" p-id="36565"></path><path d="M669.974437 410.145474l-28.168477 0c-8.481052 0-15.356806 6.875754-15.356806 15.356806s6.875754 15.356806 15.356806 15.356806l28.168477 0c8.481052 0 15.356806-6.875754 15.356806-15.356806S678.456513 410.145474 669.974437 410.145474z" p-id="36566"></path><path d="M574.369107 543.553117l-275.177579 0c-8.481052 0-15.356806 6.875754-15.356806 15.356806s6.875754 15.356806 15.356806 15.356806l275.177579 0c8.481052 0 15.356806-6.875754 15.356806-15.356806S582.850159 543.553117 574.369107 543.553117z" p-id="36567"></path><path d="M669.974437 543.553117l-28.168477 0c-8.481052 0-15.356806 6.875754-15.356806 15.356806s6.875754 15.356806 15.356806 15.356806l28.168477 0c8.481052 0 15.356806-6.875754 15.356806-15.356806S678.456513 543.553117 669.974437 543.553117z" p-id="36568"></path></svg>