<?xml version="1.0" standalone="no"?><!DOCTYPE svg PUBLIC "-//W3C//DTD SVG 1.1//EN" "http://www.w3.org/Graphics/SVG/1.1/DTD/svg11.dtd"><svg t="1555645115991" class="icon" style="" viewBox="0 0 1024 1024" version="1.1" xmlns="http://www.w3.org/2000/svg" p-id="1471" xmlns:xlink="http://www.w3.org/1999/xlink" width="200" height="200"><defs><style type="text/css"></style></defs><path d="M227.71 160.037l128.007-0.514c18.928 0.475 36.487-12.637 39.356-34.986v-24.135c-0.474-18.965-16.114-34.643-35.043-35.06l-244.422 1.443c-0.363-0.039-0.61-0.17-0.932-0.17l-17.14-0.382c-9.466-0.228-17.94 3.478-23.983 9.615-6.14 6.1-8.402 14.615-8.153 24.135l1.825 17.18c0 0.341-1.273 0.57-1.273 0.95l0.95 245.622c0.418 18.928 16.059 30.291 35.042 30.71h25.466c18.927 0.418 33.96-16.058 33.54-34.967l-1.064-133.575 168.526 165.826c18.317 18.357 47.964 18.357 66.283 0 18.263-18.358 18.263-48.024 0-66.4L227.71 160.036z m728.2 743.8l-0.988-241.84c-0.475-18.91-16.116-30.233-35.043-30.65l-24.077-0.04c-18.872-0.437-33.96 16.095-33.485 35.024l1.065 130.707-168.526-166.909c-18.318-18.359-47.926-18.359-66.247 0-18.298 18.358-18.298 48.022 0 66.38l168.505 166.776-127.836 0.513c-18.929-0.42-36.449 11.21-39.358 33.56v24.133c0.476 18.967 16.175 34.644 35.044 35.12l241.289-1.463c0.38 0 0.607 0.151 0.968 0.151l17.103 0.418c9.465 0.228 17.996-3.477 24.04-9.636 6.177-6.043 8.38-14.594 8.19-24.115l-1.881-17.14c-0.036-0.419 1.237-0.664 1.237-0.989zM394.638 630.13c-18.303-18.359-47.967-18.359-66.267 0L159.828 795.952l1.083-131.503c0.418-18.967-14.612-35.497-33.503-35.023h-25.466C82.96 629.9 67.32 641.17 66.9 660.136l-0.99 243.643c0 0.342 1.274 0.572 1.274 0.952l-1.825 17.142c-0.21 9.52 1.996 18.072 8.134 24.115 6.043 6.156 14.576 9.862 23.984 9.634l17.142-0.418c0.342 0 0.568-0.151 0.95-0.151l244.405 1.463c18.928-0.476 34.587-16.153 35.042-35.118v-24.135c-2.85-22.347-20.408-33.977-39.299-33.56l-129.472-0.417 168.393-166.778c18.28-18.3 18.28-48.021 0-66.379z m234.068-238.4c18.318 18.358 47.926 18.358 66.244 0l168.527-166.853-1.084 134.603c-0.455 18.909 14.633 35.442 33.503 35.023h24.076c18.93-0.475 34.569-11.799 35.044-30.71l0.968-245.678c0-0.38-1.254-0.609-1.254-0.95l1.862-17.18c0.19-9.52-2.014-18.035-8.19-24.134-6.044-6.138-14.576-9.844-24.021-9.579l-17.104 0.381c-0.38 0-0.609 0.134-0.987 0.19l-244.788-1.463c-18.927 0.438-34.566 16.116-35.04 35.081l-0.059 24.135c2.908 22.385 20.488 35.442 39.356 35.023l129.89 0.512-166.89 165.295c-18.355 18.281-18.355 47.947-0.053 66.305z" p-id="1472"></path></svg>