<?xml version="1.0" encoding="utf-8"?>
<!-- Generator: Adobe Illustrator 23.0.2, SVG Export Plug-In . SVG Version: 6.00 Build 0)  -->
<svg version="1.1" id="图层_1" xmlns="http://www.w3.org/2000/svg" xmlns:xlink="http://www.w3.org/1999/xlink" x="0px" y="0px"
	 width="566.9px" height="490.9px" viewBox="0 0 566.9 490.9" style="enable-background:new 0 0 566.9 490.9;" xml:space="preserve"
	>
<g>
	<path d="M526.7,79.3H39.6C17.7,79.3,0,61.5,0,39.6C0,17.8,17.7,0,39.6,0h487.1c21.9,0,39.6,17.8,39.6,39.6
		C566.4,61.5,548.6,79.3,526.7,79.3L526.7,79.3z M526.7,285.1H39.6C17.7,285.1,0,267.3,0,245.5c0-21.9,17.7-39.6,39.6-39.6h487.1
		c21.9,0,39.6,17.8,39.6,39.6C566.4,267.4,548.6,285.1,526.7,285.1L526.7,285.1z M526.7,490.9H39.6C17.7,490.9,0,473.2,0,451.3
		c0-21.9,17.7-39.6,39.6-39.6h487.1c21.9,0,39.6,17.8,39.6,39.6C566.4,473.2,548.6,490.9,526.7,490.9L526.7,490.9z M526.7,490.9"/>
</g>
</svg>
