<?xml version="1.0" standalone="no"?><!DOCTYPE svg PUBLIC "-//W3C//DTD SVG 1.1//EN" "http://www.w3.org/Graphics/SVG/1.1/DTD/svg11.dtd"><svg t="1555640316324" class="icon" style="" viewBox="0 0 1024 1024" version="1.1" xmlns="http://www.w3.org/2000/svg" p-id="3679" xmlns:xlink="http://www.w3.org/1999/xlink" width="200" height="200"><defs><style type="text/css"></style></defs><path d="M896 426.666667c-25.6 0-42.666667-17.066667-42.666667-42.666667V170.666667h-213.333333c-25.6 0-42.666667-17.066667-42.666667-42.666667s17.066667-42.666667 42.666667-42.666667h256c25.6 0 42.666667 17.066667 42.666667 42.666667v256c0 25.6-17.066667 42.666667-42.666667 42.666667zM384 938.666667H128c-25.6 0-42.666667-17.066667-42.666667-42.666667v-256c0-25.6 17.066667-42.666667 42.666667-42.666667s42.666667 17.066667 42.666667 42.666667v213.333333h213.333333c25.6 0 42.666667 17.066667 42.666667 42.666667s-17.066667 42.666667-42.666667 42.666667z" p-id="3680"></path><path d="M597.333333 469.333333c-12.8 0-21.333333-4.266667-29.866666-12.8-17.066667-17.066667-17.066667-42.666667 0-59.733333l298.666666-298.666667c17.066667-17.066667 42.666667-17.066667 59.733334 0s17.066667 42.666667 0 59.733334l-298.666667 298.666666c-8.533333 8.533333-17.066667 12.8-29.866667 12.8zM128 938.666667c-12.8 0-21.333333-4.266667-29.866667-12.8-17.066667-17.066667-17.066667-42.666667 0-59.733334l298.666667-298.666666c17.066667-17.066667 42.666667-17.066667 59.733333 0s17.066667 42.666667 0 59.733333l-298.666666 298.666667c-8.533333 8.533333-17.066667 12.8-29.866667 12.8z" p-id="3681"></path></svg>