<?xml version="1.0" standalone="no"?><!DOCTYPE svg PUBLIC "-//W3C//DTD SVG 1.1//EN" "http://www.w3.org/Graphics/SVG/1.1/DTD/svg11.dtd"><svg t="1565534293489" viewBox="0 0 1024 1024" version="1.1" xmlns="http://www.w3.org/2000/svg" p-id="2039" xmlns:xlink="http://www.w3.org/1999/xlink" width="128" height="128"><defs><style type="text/css"></style></defs><path d="M1002.599227 924.189673l-90.638567-90.818405c-10.970144-10.970144-25.537057-17.084651-41.003161-17.084651-15.466105 0-30.033017 6.114506-41.003161 17.084651-22.659642 22.83948-22.659642 59.706358 0 82.545838l90.458728 90.998243c10.970144 10.970144 25.537057 17.084651 41.003162 17.084651 15.466105 0 30.033017-6.114506 41.182999-17.264489 22.659642-22.83948 22.659642-59.706358 0-82.545838z m-77.150685-459.667018c0-60.425711-11.329821-119.232877-33.989462-174.80295-23.199157-57.548296-57.368458-109.341763-101.608711-153.582016-44.060414-44.420091-95.674043-78.769231-153.042501-102.148226-55.390235-22.479803-114.017562-33.989463-174.083597-33.989463s-118.693361 11.509659-174.083597 33.989463c-57.368458 23.378995-108.802248 57.728135-153.0425 102.148226-44.060414 44.420091-78.409554 96.03372-101.608711 153.582016C11.329821 345.469617 0 404.276783 0 464.522655s11.329821 119.232877 33.989463 174.802951c23.199157 57.548296 57.368458 109.341763 101.608711 153.582016 44.240253 44.420091 95.674043 78.769231 153.0425 102.148226 55.570074 22.479803 114.017562 33.989463 174.083597 33.989463s118.693361-11.509659 174.083597-33.989463c57.368458-23.378995 108.802248-57.728135 153.042501-102.148226 44.060414-44.420091 78.409554-96.03372 101.608711-153.582016 22.479803-55.570074 33.989463-114.377239 33.989462-174.802951zM722.051282 721.511767l-1.798384 1.798384c-68.878117 69.057956-160.236038 107.003864-257.528627 107.003864-97.292589 0-188.830348-38.125746-257.528626-107.183702-68.698279-69.057956-106.644187-160.955392-106.644187-258.607658 0-97.652266 37.945908-189.369863 106.644187-258.607657 68.878117-69.057956 160.236038-107.183702 257.528626-107.183702 96.932912 0 187.931156 37.76607 256.809273 106.644187l2.517738 1.258869v1.258869c67.619248 68.878117 104.845803 159.876361 104.845803 256.809273S789.850369 652.633649 722.051282 721.511767z m0 0" p-id="2040"></path><path d="M654.971549 426.396909c-24.278188 0-47.117668 16.724974-54.311205 39.924131l-13.66772 44.060414-90.099052-255.550404c-13.308044-37.76607-60.066034-42.621707-81.286969-8.991921l-123.728837 196.743238h-96.753073c-21.580611 0-39.204777 17.624166-39.204777 39.204777s17.444327 39.204777 39.024938 39.204777H300.330172c20.681419 0 42.26203-11.869336 53.232174-29.313663l92.257113-146.568318 101.428873 290.798736c15.106428 42.621707 70.136986 40.643484 83.265191-1.618546l40.103969-129.303829h46.038637c21.580611 0 39.204777-17.624166 39.204777-39.204777s-17.624166-39.204777-39.024938-39.204777l-61.864419-0.179838z m0 0" p-id="2041"></path></svg>