<?xml version="1.0" standalone="no"?><!DOCTYPE svg PUBLIC "-//W3C//DTD SVG 1.1//EN" "http://www.w3.org/Graphics/SVG/1.1/DTD/svg11.dtd"><svg t="1569376134304" class="icon" viewBox="0 0 1165 1024" version="1.1" xmlns="http://www.w3.org/2000/svg" p-id="2040" xmlns:xlink="http://www.w3.org/1999/xlink" width="36.40625" height="32"><defs><style type="text/css"></style></defs><path d="M546.190228 831.944439H145.650728c-40.253082 0-72.825364-28.589645-72.825364-64.006668v-49.356252l214.635691-163.003646 76.950238 66.566934c39.968608 34.848074 103.548564 37.123867 146.646387 5.26277l362.704448-269.396951 145.792965 128.297809c14.650415 13.796993 20.908845 20.055422 36.98163 20.055422 11.5212 0 21.193319-5.689482 28.589644-13.796992 7.823037-8.534222 7.254089-29.016356 7.254089-39.115186V128.013335c0-70.691808-65.144564-128.013335-145.650727-128.013335H145.650728C65.144564 0.142237 0 57.321527 0 128.013335v639.924436c0 33.994652 15.3616 66.566934 42.671112 90.462757 27.309511 24.03806 64.433378 37.550578 102.979616 37.550578h399.828315c18.633052 0 35.701497-13.370282 37.123867-29.585304 1.42237-18.775289-15.3616-34.421363-36.412682-34.421363zM72.825364 128.013335c0-35.274786 32.572282-64.006667 72.825364-64.006668h801.079001c40.253082 0 72.825364 28.589645 72.825364 64.006668v267.832343l-96.57895-85.057749c-27.025037-20.055422-66.566934-20.197659-93.591971-0.142237L464.261694 578.193562c-14.365941 10.525541-35.417023 9.814356-48.787304-1.706845L338.524152 509.919783c-27.167274-23.184637-69.980623-24.464771-98.712505-2.84474L72.825364 633.950481V128.013335z m190.455394 150.060075c0 38.830712 23.326874 73.821023 59.312846 88.755912 35.843734 14.792652 77.092475 6.685141 104.544223-20.766607 27.451748-27.451748 35.701497-68.70049 20.766607-104.544223-14.792652-35.843734-49.925201-59.312845-88.755912-59.312846-25.46043 0-49.925201 10.09883-67.847067 28.162934-17.921867 17.77963-28.020697 42.2444-28.020697 67.70483z m827.392854 363.557871c87.475779 87.475779 87.475779 229.286106 0 316.761885s-229.286106 87.475779-316.761885 0c-86.195645-87.618016-85.48446-228.432684 1.42237-315.339515 87.049068-87.049068 227.721499-87.618016 315.339515-1.42237zM819.285342 913.019551c53.765601 53.765601 137.82769 62.157586 201.26541 20.339896L798.945446 711.754141c-41.959926 63.437719-33.425704 147.499809 20.339896 201.26541z m246.496788-24.891482c41.675452-63.437719 33.14123-147.357572-20.482133-201.123173-53.623364-53.623364-137.685453-62.299823-201.123173-20.482133l221.605306 221.605306z m0 0" p-id="2041"></path></svg>