<?xml version="1.0" encoding="utf-8"?>
<!-- Generator: Adobe Illustrator 23.0.2, SVG Export Plug-In . SVG Version: 6.00 Build 0)  -->
<svg version="1.1" id="图层_1" xmlns="http://www.w3.org/2000/svg" xmlns:xlink="http://www.w3.org/1999/xlink" x="0px" y="0px"
	 width="566.9px" height="566.9px" viewBox="0 0 566.9 566.9" style="enable-background:new 0 0 566.9 566.9;" xml:space="preserve"
	>
<g>
	<g>
		<path d="M556.1,503.7L441.4,389c29.8-40.5,47.5-90.5,47.5-144.6C488.9,109.7,379.2,0,244.4,0C109.6,0,0,109.7,0,244.4
			s109.7,244.4,244.4,244.4c54.1,0,104.1-17.7,144.6-47.5l114.7,114.7c7.2,7.2,16.7,10.8,26.2,10.8c9.5,0,18.9-3.6,26.2-10.8
			C570.5,541.6,570.5,518.2,556.1,503.7L556.1,503.7z M60.2,244.4c0-101.6,82.7-184.3,184.3-184.3s184.3,82.7,184.3,184.3
			c0,101.6-82.7,184.3-184.3,184.3S60.2,346,60.2,244.4L60.2,244.4z M60.2,244.4"/>
	</g>
</g>
</svg>
