<?xml version="1.0" standalone="no"?><!DOCTYPE svg PUBLIC "-//W3C//DTD SVG 1.1//EN" "http://www.w3.org/Graphics/SVG/1.1/DTD/svg11.dtd"><svg t="1569374530049" class="icon" viewBox="0 0 1174 1024" version="1.1" xmlns="http://www.w3.org/2000/svg" p-id="1922" xmlns:xlink="http://www.w3.org/1999/xlink" width="36.6875" height="32"><defs><style type="text/css"></style></defs><path d="M896.268795 21.933641h-67.377853c-17.776284 0-34.97914 7.741285-46.447711 21.50357-34.405712 41.143497-133.035419 67.807924-195.109058 67.807924S426.630827 84.580708 392.081758 43.437211c-11.611928-13.762285-28.671427-21.50357-46.447711-21.50357h-67.377852c-16.342713 0-32.111998 6.594428-43.723926 18.49307L10.751785 267.791124c-14.335713 14.622428-14.335713 38.276354 0 52.898782l136.332633 138.769705c14.335713 14.622428 37.702926 14.622428 52.03864 0l4.587428-4.587428c4.874143-4.874143 13.188856-1.576928 13.188856 5.590928v483.830323c0 31.395212 24.944141 56.912782 55.909282 56.912782h628.47767c30.965141 0 55.909282-25.51757 55.909282-56.912782V460.463111c0-7.0245 8.314714-10.608428 13.332213-5.590928l4.587429 4.587428c14.335713 14.622428 37.702926 14.622428 52.038639 0l136.332633-138.769705c14.335713-14.622428 14.335713-38.276354 0-52.898782l-223.637127-227.50777c-11.468571-11.755285-27.237855-18.349713-43.580568-18.349713z m0 0" p-id="1923"></path></svg>