<?xml version="1.0" standalone="no"?><!DOCTYPE svg PUBLIC "-//W3C//DTD SVG 1.1//EN" "http://www.w3.org/Graphics/SVG/1.1/DTD/svg11.dtd">
<svg t="1565534299542" viewBox="0 0 1024 1024" version="1.1" 
    xmlns="http://www.w3.org/2000/svg" p-id="2166" 
    xmlns:xlink="http://www.w3.org/1999/xlink" width="128" height="128">
    <defs>
        <style type="text/css"></style>
    </defs>
    <path d="M853.363492 409.708341h-144.995945L505.048203 214.33398c-6.861576-6.861576-16.43167-10.292365-26.182331-9.389526-9.750661 0.722271-18.598484 5.597602-24.557221 13.18145l-146.440486 191.401869h-137.231529c-18.779051 0-34.127314 15.348263-34.127315 34.127314s15.348263 34.127314 34.127315 34.127315h154.024334c10.6535 0 20.765297-4.875331 27.265738-13.362018l133.439605-174.428495 185.6237 178.400987c6.319873 6.139305 14.80656 9.570093 23.654382 9.570093h158.719097c18.779051 0 34.127314-15.348263 34.127314-34.127314s-15.167695-34.127314-34.127314-34.127314z" p-id="2167"></path>
    <path d="M921.61812 0H102.562575C46.044853 0 0.000064 47.850467 0.000064 106.354435v587.025921c0 58.503968 45.864221 106.354435 102.381943 106.354435h299.020279v153.482631H301.728859c-19.140187 0.361136-34.48845 16.251102-34.127314 35.391289 0 19.68189 15.167695 35.391289 52.003527 35.391289h409.527773c1.444542-0.361136 16.612238-16.251102 16.251102-35.391289 0.361136-19.140187-14.987127-35.030153-34.127315-35.391289h-104.729324v-153.482631h315.27138c56.337154 0 102.381943-47.669899 102.381944-106.354435V106.354435C1024.000064 47.669899 978.135842 0 921.61812 0zM70.602074 107.437842c0-18.959619 15.167695-34.307882 33.946747-34.307883H919.270739c18.598484 0 33.946747 15.348263 33.946747 34.307883V585.220243H70.602074V107.437842z m467.128901 843.432199H476.879626v-146.259919h60.851349v146.259919z m415.667078-263.267854c0 24.196085-15.348263 43.877976-16.251102 43.877975H122.425033C85.950337 731.480162 70.602074 711.798272 70.602074 687.602187v-29.251984h882.795979v29.251984z" p-id="2168"></path>
</svg>