<?xml version="1.0" standalone="no"?><!DOCTYPE svg PUBLIC "-//W3C//DTD SVG 1.1//EN" "http://www.w3.org/Graphics/SVG/1.1/DTD/svg11.dtd">
<svg t="1565534286685" viewBox="0 0 1024 1024" version="1.1" 
    xmlns="http://www.w3.org/2000/svg" p-id="1913" 
    xmlns:xlink="http://www.w3.org/1999/xlink" width="128" height="128">
    <defs>
        <style type="text/css"></style>
    </defs>
    <path d="M0.904422 614.508379C22.038308 718.371494 74.240813 811.938614 151.731728 884.913741a46.061034 46.061034 0 0 0 38.655142 12.102311c14.089257-1.986947 26.3722-10.476627 33.59746-22.759569l60.511554-104.766273c10.115364-17.521256 7.767155-39.5583-5.780208-54.550714-31.610513-35.042512-54.731346-76.949021-67.375551-122.287529-5.599577-20.230729-23.843359-34.139354-44.796613-34.139355H46.604193c-13.908626 0-27.275357 6.322103-36.126301 17.159993S-1.805051 600.780385 0.904422 614.508379z m615.772799 215.312753c-10.115364-17.521256-30.526724-26.552831-50.215558-22.217675-50.215558 11.018522-102.237432 8.850944-151.369201-5.960839-20.772623-6.322103-42.990298 2.528841-53.828188 21.314517l-59.427765 102.959958c-6.863997 11.921679-8.128418 26.191568-3.431999 39.016405 4.696419 12.824837 14.811783 23.120833 27.63662 27.817252 56.357029 20.772623 115.784794 31.24925 176.657612 31.24925 50.39619 0 100.069854-7.22526 147.756571-21.675781 13.547363-4.154525 24.565885-14.269889 29.804198-27.455988 5.238314-13.1861 4.154525-28.178515-3.070736-40.461457l-60.511554-104.585642zM830.544923 118.85553c-8.309049-7.044629-18.966308-10.83789-29.804198-10.83789-2.709473 0-5.418945 0.361263-8.128418 0.722526-13.547363 2.34821-25.288411 10.657259-32.152408 22.578938l-59.608396 102.959958c-10.83789 18.785676-7.22526 42.448404 8.48968 57.260187 40.461457 37.751984 69.723761 86.161228 84.354913 139.628153 5.599577 20.230729 24.02399 34.139354 44.977245 34.139354h119.939319c13.908626 0 27.094726-6.322103 35.945669-16.979361 8.850944-10.83789 12.463574-24.927148 9.57347-38.655142-22.75957-113.255953-84.535544-216.577174-173.586876-290.816723z m-150.466043-69.723761c-5.238314-13.1861-16.256835-23.301464-29.804199-27.455988-47.867349-14.45052-97.721644-21.675781-147.756571-21.675781-60.872817 0-120.300582 10.476627-176.657611 31.24925-12.824837 4.696419-22.940201 14.992415-27.63662 27.817252-4.696419 12.824837-3.431999 27.275357 3.431998 39.016405l59.427765 102.959958c10.83789 18.785676 33.236197 27.63662 53.828189 21.314517 28.359146-8.670312 57.802081-13.005468 87.425648-13.005468 21.314518 0 42.809667 2.34821 63.762921 6.863997 19.869466 4.335156 40.100194-4.696419 50.215558-22.217675l60.511554-104.766273c7.405892-12.102311 8.489681-26.914094 3.251368-40.100194z m278.53378 509.380843h-119.939319c-20.953255 0-39.377668 14.089257-44.977245 34.139355-14.631152 53.466925-43.893456 101.695537-84.354913 139.628153-15.714941 14.811783-19.327571 38.47451-8.48968 57.260187l59.608396 103.140589c6.863997 11.921679 18.605045 20.230729 32.152408 22.578938 2.709473 0.541895 5.418945 0.722526 8.128418 0.722526 10.83789 0 21.495149-3.793262 29.804198-10.83789 89.051332-74.239548 150.827306-177.560769 173.767507-290.816723 2.709473-13.727994-0.722526-27.817252-9.573469-38.655142-8.850944-10.83789-22.217675-17.159993-36.126301-17.159993z m-948.134768-110.185217c8.850944 10.83789 22.037044 17.159993 36.126301 17.159993h119.939319c20.953255 0 39.197037-13.908626 44.796613-34.139355 12.644205-45.519139 35.765038-87.425648 67.375551-122.46816 13.547363-14.992415 15.895572-37.029458 5.780208-54.550714l-60.511554-104.766273c-7.22526-12.282942-19.508203-20.772623-33.59746-22.75957-2.167578-0.361263-4.515788-0.541895-6.683365-0.541894-11.741048 0-23.301464 4.515788-31.971777 12.644205C74.240813 211.880755 22.038308 305.447874 0.904422 409.491621c-2.709473 13.908626 0.722526 27.997883 9.57347 38.835774z m0 0" p-id="1914"></path>
</svg>