<?xml version="1.0" encoding="utf-8"?>
<!-- Generator: Adobe Illustrator 23.0.2, SVG Export Plug-In . SVG Version: 6.00 Build 0)  -->
<svg version="1.1" id="图层_1" xmlns="http://www.w3.org/2000/svg" xmlns:xlink="http://www.w3.org/1999/xlink" x="0px" y="0px"
	 width="566.9px" height="566.9px" viewBox="0 0 566.9 566.9" style="enable-background:new 0 0 566.9 566.9;" xml:space="preserve"
	>
<style type="text/css">
	.st0{clip-path:url(#SVGID_2_);}
</style>
<g>
	<g>
		<defs>
			<rect id="SVGID_1_" width="566" height="566.9"/>
		</defs>
		<clipPath id="SVGID_2_">
			<use xlink:href="#SVGID_1_"  style="overflow:visible;"/>
		</clipPath>
		<path class="st0" d="M194.8,30.4H48.6C21.8,30.5,0,52.2,0,79v146.2c0,26.8,21.8,48.6,48.6,48.6h146.2c26.8,0,48.6-21.8,48.6-48.6
			V79C243.4,52.2,221.6,30.5,194.8,30.4 M551.6,117.7L448.2,14.4c-19-18.9-49.7-18.9-68.7,0l-14.3,14.3l-89.1,89
			c-9.1,9.1-14.2,21.4-14.2,34.3c-0.1,12.9,5,25.3,14.2,34.5l14.3,14.3l74.8,74.8l14.3,14.3c19,19,49.8,19,68.7,0l89.1-89.1
			l14.3-14.3C570.5,167.5,570.5,136.8,551.6,117.7 M194.8,322.5H48.6C21.8,322.6,0,344.3,0,371.1v146.2c0,26.8,21.8,48.6,48.6,48.6
			h146.2c26.8,0,48.6-21.8,48.6-48.6V371.1C243.4,344.3,221.6,322.6,194.8,322.5 M486.9,322.5H340.7c-26.8,0-48.6,21.8-48.6,48.6
			v146.2c0,26.8,21.8,48.6,48.6,48.6h146.2c26.8,0,48.6-21.8,48.6-48.6V371.1C535.5,344.3,513.7,322.6,486.9,322.5"/>
	</g>
</g>
</svg>
