<?xml version="1.0" encoding="utf-8"?>
<!-- Generator: Adobe Illustrator 22.1.0, SVG Export Plug-In . SVG Version: 6.00 Build 0)  -->
<svg version="1.1" xmlns="http://www.w3.org/2000/svg" xmlns:xlink="http://www.w3.org/1999/xlink" x="0px" y="0px"
	 viewBox="0 0 200 200" style="enable-background:new 0 0 200 200;" xml:space="preserve">
<path d="M100,200c55.2,0,100-44.8,100-100S155.2,0,100,0S0,44.8,0,100S44.8,200,100,200z M100,191.7c-50.6,0-91.7-41-91.7-91.7
	S49.4,8.3,100,8.3c50.6,0,91.7,41,91.7,91.7S150.6,191.7,100,191.7z M98.1,148.8c-1.3,1.5-3.5,1.7-5,0.4c-0.1-0.1-0.2-0.2-0.3-0.3
	c-1.4-1.6-1.4-4.1,0-5.7l39.8-43.1L92.8,57c-1.5-1.6-1.5-4.1-0.1-5.8c1.4-1.5,3.7-1.6,5.1-0.2c0.1,0.1,0.2,0.2,0.2,0.2l42.4,45.8
	c1.5,1.6,1.5,4.1,0.1,5.8L98.1,148.8L98.1,148.8z M64.8,148.8c-1.3,1.5-3.5,1.7-5,0.4c-0.1-0.1-0.2-0.2-0.3-0.3
	c-1.4-1.6-1.4-4.1,0-5.7L99.2,100L59.5,57c-1.5-1.6-1.5-4.1-0.1-5.8c1.4-1.5,3.7-1.6,5.1-0.2c0.1,0.1,0.2,0.2,0.2,0.2l42.4,45.8
	c1.5,1.6,1.5,4.1,0.1,5.8L64.8,148.8L64.8,148.8z"/>
</svg>
