<?xml version="1.0" encoding="utf-8"?>
<!-- Generator: Adobe Illustrator 22.1.0, SVG Export Plug-In . SVG Version: 6.00 Build 0)  -->
<svg version="1.1" xmlns="http://www.w3.org/2000/svg" xmlns:xlink="http://www.w3.org/1999/xlink" x="0px" y="0px"
	 viewBox="0 0 200 200" style="enable-background:new 0 0 200 200;" xml:space="preserve">
<path d="M200,100C200,44.8,155.2,0,100,0C44.8,0,0,44.8,0,100c0,55.2,44.8,100,100,100S200,155.2,200,100z M8.3,100
	c0-50.6,41-91.7,91.7-91.7c50.6,0,91.7,41,91.7,91.7s-41,91.7-91.7,91.7C49.4,191.7,8.3,150.6,8.3,100z M101.9,148.8l-42.4-45.9
	c-1.5-1.7-1.4-4.2,0.1-5.8l42.4-45.8c0.1-0.1,0.2-0.2,0.2-0.2c1.5-1.4,3.8-1.3,5.1,0.2c1.5,1.7,1.5,4.2-0.1,5.8L67.4,100l39.8,43.1
	c1.4,1.6,1.4,4.1,0,5.7c-0.1,0.1-0.2,0.2-0.3,0.3C105.4,150.4,103.2,150.3,101.9,148.8L101.9,148.8z M135.2,148.8l-42.4-45.9
	c-1.5-1.7-1.4-4.2,0.1-5.8l42.4-45.8c0.1-0.1,0.2-0.2,0.2-0.2c1.5-1.4,3.8-1.3,5.1,0.2c1.5,1.7,1.5,4.2-0.1,5.8L100.8,100l39.8,43.1
	c1.4,1.6,1.4,4.1,0,5.7c-0.1,0.1-0.2,0.2-0.3,0.3C138.7,150.4,136.5,150.3,135.2,148.8L135.2,148.8z"/>
</svg>
