<?xml version="1.0" encoding="utf-8"?>
<!-- Generator: Adobe Illustrator 23.0.2, SVG Export Plug-In . SVG Version: 6.00 Build 0)  -->
<svg version="1.1" id="图层_1" xmlns="http://www.w3.org/2000/svg" xmlns:xlink="http://www.w3.org/1999/xlink" x="0px" y="0px"
	 width="566.9px" height="566.9px" viewBox="0 0 566.9 566.9" style="enable-background:new 0 0 566.9 566.9;" xml:space="preserve"
	>
<g>
	<path d="M246.5,0H12.3C5.5,0,0,5.5,0,12.3v234.2c0,6.8,5.5,12.3,12.3,12.3h234.2c6.8,0,12.3-5.5,12.3-12.3V12.3
		C258.8,5.5,253.3,0,246.5,0L246.5,0z M206.4,206.4H52.4V52.4h154.1V206.4z M554.6,0H320.4c-6.8,0-12.3,5.5-12.3,12.3v234.2
		c0,6.8,5.5,12.3,12.3,12.3h234.2c6.8,0,12.3-5.5,12.3-12.3V12.3C566.9,5.5,561.4,0,554.6,0L554.6,0z M514.5,206.4H360.5V52.4h154.1
		V206.4z M246.5,308.1H12.3c-6.8,0-12.3,5.5-12.3,12.3v234.2c0,6.8,5.5,12.3,12.3,12.3h234.2c6.8,0,12.3-5.5,12.3-12.3V320.4
		C258.8,313.7,253.3,308.1,246.5,308.1L246.5,308.1z M206.4,514.5H52.4V360.5h154.1V514.5z M554.6,308.1H320.4
		c-6.8,0-12.3,5.5-12.3,12.3v234.2c0,6.8,5.5,12.3,12.3,12.3h234.2c6.8,0,12.3-5.5,12.3-12.3V320.4
		C566.9,313.7,561.4,308.1,554.6,308.1L554.6,308.1z M514.5,514.5H360.5V360.5h154.1V514.5z M514.5,514.5"/>
</g>
</svg>
