<?xml version="1.0" encoding="utf-8"?>
<!-- Generator: Adobe Illustrator 23.0.2, SVG Export Plug-In . SVG Version: 6.00 Build 0)  -->
<svg version="1.1" id="图层_1" xmlns="http://www.w3.org/2000/svg" xmlns:xlink="http://www.w3.org/1999/xlink" x="0px" y="0px"
	 width="566.9px" height="566.9px" viewBox="0 0 566.9 566.9" style="enable-background:new 0 0 566.9 566.9;" xml:space="preserve"
	>
<path d="M531.5,0H35.4C14.2,0,0,14.2,0,35.4v70.9c0,21.3,14.2,35.4,35.4,35.4h496.1c21.3,0,35.4-14.2,35.4-35.4V35.4
	C566.9,14.2,552.8,0,531.5,0z M496.1,106.3H389.8V70.9h106.3V106.3z"/>
<path d="M531.5,212.6H35.4C14.2,212.6,0,226.8,0,248v70.9c0,21.3,14.2,35.4,35.4,35.4h496.1c21.3,0,35.4-14.2,35.4-35.4V248
	C566.9,226.8,552.8,212.6,531.5,212.6z M496.1,318.9H389.8v-35.4h106.3V318.9z"/>
<path d="M531.5,425.2H35.4C14.2,425.2,0,439.4,0,460.6v70.9c0,21.3,14.2,35.4,35.4,35.4h496.1c21.3,0,35.4-14.2,35.4-35.4v-70.9
	C566.9,439.4,552.8,425.2,531.5,425.2z M496.1,531.5H389.8v-35.4h106.3V531.5z"/>
</svg>
