<?xml version="1.0" encoding="utf-8"?>
<!-- Generator: Adobe Illustrator 23.0.2, SVG Export Plug-In . SVG Version: 6.00 Build 0)  -->
<svg version="1.1" id="图层_1" xmlns="http://www.w3.org/2000/svg" xmlns:xlink="http://www.w3.org/1999/xlink" x="0px" y="0px"
	 width="566.9px" height="535.9px" viewBox="0 0 566.9 535.9" style="enable-background:new 0 0 566.9 535.9;" xml:space="preserve"
	>
<g>
	<g>
		<path d="M555.7,263.7L313.8,21.9L297.6,5.7c-7.7-7.6-20.1-7.6-27.8,0L11.8,263.7C4.1,271.4-0.1,281.6,0,292.5
			c0.3,22,18.6,39.6,40.6,39.6h26.6v203.9h433V332.1h27.2c10.7,0,20.8-4.2,28.4-11.8c7.6-7.6,11.7-17.6,11.7-28.4
			C567.4,281.3,563.3,271.2,555.7,263.7L555.7,263.7z M318.8,490.9h-70.1V363.2h70.1V490.9z M455.2,287v203.9h-96.3V348.2
			c0-13.8-11.2-25-25-25H233.7c-13.8,0-25,11.2-25,25v142.7h-96.3V287H52.2L283.8,55.6l14.5,14.5L515.3,287H455.2z M455.2,287"/>
	</g>
</g>
</svg>
