<?xml version="1.0" encoding="utf-8"?>
<!-- Generator: Adobe Illustrator 23.0.2, SVG Export Plug-In . SVG Version: 6.00 Build 0)  -->
<svg version="1.1" id="图层_1" xmlns="http://www.w3.org/2000/svg" xmlns:xlink="http://www.w3.org/1999/xlink" x="0px" y="0px"
	 width="566.9px" height="566.9px" viewBox="0 0 566.9 566.9" style="enable-background:new 0 0 566.9 566.9;" xml:space="preserve"
	>
<style type="text/css">
	.st0{clip-path:url(#SVGID_2_);}
</style>
<g>
	<g>
		<defs>
			<rect id="SVGID_1_" width="564.3" height="566.9"/>
		</defs>
		<clipPath id="SVGID_2_">
			<use xlink:href="#SVGID_1_"  style="overflow:visible;"/>
		</clipPath>
		<path class="st0" d="M431.2,122c-13.9-80.2-89.6-133.7-169-119.6c-79.3,14.1-146.3,75.9-132.3,156c3,17.3,11.4,44.3,21.3,63.8
			L7.1,430.1c-5.3,7.7-8.4,21.5-6.8,30.7l6.2,35.6c-5.9-34.3,1.6,12.4,6.2,12.2l47.5,0.7c9.2-1.6,20.7-9.4,25.7-17.2l57-89.2
			l0.5-0.6l49.8,3.9l66.6-104.4c0,0,14.8-30.3,69.7-59.5c50.2-23.3,92.4-18.4,92.4-18.4C434.2,193.3,437.4,157.2,431.2,122
			L431.2,122z M46.1,444.3l-12.5,7.8l2.9-14.1l135.2-193.5l9.4,6.5L46.1,444.3z M361,163c-21.9,31.4-44.1,9.3-75.3-12.8
			c-31.1-22.1-59.5-35.6-37.6-67.1C270,51.7,312.9,43.9,344,66C375.2,88.2,382.8,131.6,361,163L361,163z M361,163"/>
	</g>
	<path d="M525.3,384.7c-2.6-9.8-6.5-19.2-11.5-28l22-33.2l-0.1-0.1l-31.3-31.3l-0.1-0.1l-33.2,22c-8.7-5.1-18.1-8.9-27.9-11.5
		l-7.9-39H391l-7.9,38.9c-9.8,2.6-19.1,6.5-27.9,11.5l-33.2-22l-31.4,31.4l22,33.2c-5.1,8.8-9,18.2-11.6,28l-39,7.9V437l39,7.9
		c2.6,9.8,6.5,19.2,11.5,28l-22,33.2l31.4,31.4l33.2-22c8.7,5.1,18.1,8.9,27.9,11.5l7.9,39h44.4l7.9-39c9.8-2.6,19.1-6.5,27.9-11.5
		l33.2,22l0.1-0.1l31.3-31.3l0.1-0.1l-22-33.2c5.1-8.8,9-18.2,11.5-28l39-7.9v-44.4L525.3,384.7z M413.3,467.3
		c-29,0-52.5-23.6-52.5-52.6c0-29,23.6-52.5,52.6-52.5c29,0,52.5,23.6,52.5,52.6C465.8,443.8,442.3,467.3,413.3,467.3L413.3,467.3z
		 M413.3,467.3"/>
</g>
</svg>
