<?xml version="1.0" standalone="no"?><!DOCTYPE svg PUBLIC "-//W3C//DTD SVG 1.1//EN" "http://www.w3.org/Graphics/SVG/1.1/DTD/svg11.dtd"><svg t="1547175250753" style="" viewBox="0 0 1024 1024" version="1.1" xmlns="http://www.w3.org/2000/svg" p-id="47454" xmlns:xlink="http://www.w3.org/1999/xlink" width="200" height="200"><defs><style type="text/css"></style></defs><path d="M406.1 459.1H118c-28.7 0-52-23.3-52-52V117.6c0-28.7 23.3-52 52-52h288.1c28.7 0 52 23.3 52 52v289.5c0 28.7-23.4 52-52 52zM406.1 958.4H118c-28.7 0-52-23.3-52-52V617c0-28.7 23.3-52 52-52h288.1c28.7 0 52 23.3 52 52v289.5c0 28.6-23.4 51.9-52 51.9zM928 201.1H596.8c-17.7 0-32-14.3-32-32s14.3-32 32-32H928c17.7 0 32 14.3 32 32s-14.3 32-32 32zM928 387.7H596.8c-17.7 0-32-14.3-32-32s14.3-32 32-32H928c17.7 0 32 14.3 32 32s-14.3 32-32 32z" p-id="47455"></path><path d="M928 700.4H596.8c-17.7 0-32-14.3-32-32s14.3-32 32-32H928c17.7 0 32 14.3 32 32s-14.3 32-32 32zM928 887H596.8c-17.7 0-32-14.3-32-32s14.3-32 32-32H928c17.7 0 32 14.3 32 32s-14.3 32-32 32z" p-id="47456"></path></svg>