<?xml version="1.0" encoding="utf-8"?>
<!-- Generator: Adobe Illustrator 23.0.2, SVG Export Plug-In . SVG Version: 6.00 Build 0)  -->
<svg version="1.1" id="图层_1" xmlns="http://www.w3.org/2000/svg" xmlns:xlink="http://www.w3.org/1999/xlink" x="0px" y="0px"
	 width="566.9px" height="566.9px" viewBox="0 0 566.9 566.9" style="enable-background:new 0 0 566.9 566.9;" xml:space="preserve"
	>
<g>
	<path d="M205.9,1.9H52.1C23.9,2,1,24.8,1,53.1v153.7c0,28.2,22.9,51.1,51.1,51.1h153.8c28.2,0,51.1-22.9,51.1-51.1V53.1
		C257,24.8,234.1,2,205.9,1.9 M205.9,309.1H52.1C23.9,309.2,1,332,1,360.3V514c0,28.2,22.9,51.1,51.1,51.1h153.8
		c28.2,0,51.1-22.9,51.1-51.1V360.3C257,332,234.1,309.2,205.9,309.1 M513.1,1.9H359.3c-28.2,0-51.1,22.9-51.1,51.1v153.7
		c0,28.2,22.9,51.1,51.1,51.1h153.8c28.2,0,51.1-22.9,51.1-51.1V53.1C564.2,24.8,541.3,2,513.1,1.9 M436.2,360.3
		c-14.1,0-25.6,11.5-25.6,25.6v153.6c0,14.1,11.5,25.6,25.6,25.6c14.1,0,25.6-11.5,25.6-25.6V385.9
		C461.8,371.8,450.3,360.3,436.2,360.3 M333.8,360.3c-14.1,0-25.6,11.5-25.6,25.6v153.6c0,14.1,11.5,25.6,25.6,25.6
		c14.1,0,25.6-11.5,25.6-25.6V385.9C359.4,371.8,347.9,360.3,333.8,360.3 M538.6,309.1c-14.1,0-25.6,11.5-25.6,25.6v204.8
		c0,14.1,11.5,25.6,25.6,25.6c14.1,0,25.6-11.5,25.6-25.6V334.7C564.2,320.6,552.7,309.1,538.6,309.1"/>
</g>
</svg>
