<?xml version="1.0" encoding="utf-8"?>
<!-- Generator: Adobe Illustrator 23.0.2, SVG Export Plug-In . SVG Version: 6.00 Build 0)  -->
<svg version="1.1" id="图层_1" xmlns="http://www.w3.org/2000/svg" xmlns:xlink="http://www.w3.org/1999/xlink" x="0px" y="0px"
	 width="566.9px" height="536.9px" viewBox="0 0 566.9 536.9" style="enable-background:new 0 0 566.9 536.9;" xml:space="preserve"
	>
<g>
	<g>
		<path d="M542.7,374.5h-33.2v-80.1c0-26.8-21.8-48.6-48.6-48.6h-154v-83.4h33.2c13.8,0,24.9-11.2,24.9-24.9V24.9
			C365,11.2,353.9,0,340.1,0H227.5c-13.8,0-24.9,11.2-24.9,24.9v112.6c0,13.8,11.2,24.9,24.9,24.9h33.2v83.4h-154
			c-26.8,0-48.6,21.8-48.6,48.6v80.1H24.9C11.2,374.5,0,385.7,0,399.4V512c0,13.8,11.2,24.9,24.9,24.9h112.6
			c13.8,0,24.9-11.2,24.9-24.9V399.4c0-13.8-11.2-24.9-24.9-24.9h-33.2v-80.1c0-1.3,1.1-2.4,2.4-2.4h154v82.5h-33.2
			c-13.8,0-24.9,11.2-24.9,24.9V512c0,13.8,11.2,24.9,24.9,24.9h112.6c13.8,0,24.9-11.2,24.9-24.9V399.4c0-13.8-11.2-24.9-24.9-24.9
			h-33.2v-82.5h154c1.3,0,2.4,1.1,2.4,2.4v80.1h-33.2c-13.8,0-24.9,11.2-24.9,24.9V512c0,13.8,11.2,24.9,24.9,24.9h112.6
			c13.8,0,24.9-11.2,24.9-24.9V399.4C567.6,385.7,556.5,374.5,542.7,374.5L542.7,374.5z M542.7,374.5"/>
	</g>
</g>
</svg>
