<?xml version="1.0" encoding="utf-8"?>
<!-- Generator: Adobe Illustrator 23.0.2, SVG Export Plug-In . SVG Version: 6.00 Build 0)  -->
<svg version="1.1" id="图层_1" xmlns="http://www.w3.org/2000/svg" xmlns:xlink="http://www.w3.org/1999/xlink" x="0px" y="0px"
	 width="566.9px" height="566.9px" viewBox="0 0 566.9 566.9" style="enable-background:new 0 0 566.9 566.9;" xml:space="preserve"
	>
<g>
	<g>
		<path d="M401.3,283.5c0,66.9-52.9,121.5-118,121.5c-65.1,0-118-54.5-118-121.5c0-67,52.9-121.5,118-121.5
			C348.4,162,401.3,216.5,401.3,283.5 M555.8,203.8c-3-11-13.1-18.4-24.2-17.6c-4.1,0.3-8.2,0-12.3-0.9
			c-13.3-2.7-24.8-11.2-31.6-23.3c-9-16-8.4-35.9,1.6-51.2c6.1-9.5,5-22.1-2.7-30.3c-14.4-15.3-30.7-28.3-47.8-39.9
			c-26.4-17.9-55.3-31.8-86.2-39.8c-10.8-2.8-22,2.5-26.9,12.8c-7.9,16.6-24.3,27.1-42.3,27h-0.1c-17.9,0-34.3-10.5-42.3-27
			C236,3.3,224.8-2.1,214,0.7c-30.9,8-59.8,21.9-86.2,39.8C110.7,52.2,94.4,65.1,80,80.4c-7.7,8.2-8.9,20.8-2.7,30.4
			c10,15.4,10.6,35.2,1.6,51.2c-6.8,12.1-18.3,20.6-31.6,23.2c-4,0.9-8.2,1.2-12.3,1c-11.1-0.9-21.3,6.5-24.2,17.6
			C3.6,229.7,0,256.5,0,283.5c0,27,3.6,53.8,10.7,79.6c3,11,13.1,18.4,24.2,17.6c4.2-0.2,8.3,0.2,12.3,1c15.4,3.1,28.4,14,34.4,28.9
			c6,15,4.4,32-4.3,45.5c-6.1,9.5-5,22.2,2.7,30.4c14.4,15.3,30.7,28.3,47.8,39.9c26.4,18,55.3,31.8,86.2,39.8
			c10.8,2.8,22-2.5,26.9-12.8c7.9-16.6,24.4-27.1,42.3-27c18.1,0,34.3,10.3,42.3,27c4.9,10.2,16.1,15.6,26.9,12.8
			c30.9-8,59.8-21.8,86.2-39.8c17.1-11.6,33.4-24.6,47.8-39.9c7.7-8.2,8.9-20.8,2.7-30.3c-10-15.4-10.6-35.2-1.6-51.2
			c6.9-12.4,18.4-20.6,31.6-23.3c4-0.8,8.2-1.1,12.3-0.9c11.1,0.7,21.2-6.6,24.2-17.6c7.1-25.9,10.7-52.7,10.7-79.6
			C566.5,256.4,562.9,229.6,555.8,203.8"/>
	</g>
</g>
</svg>
