<?xml version="1.0" encoding="utf-8"?>
<!-- Generator: Adobe Illustrator 23.0.2, SVG Export Plug-In . SVG Version: 6.00 Build 0)  -->
<svg version="1.1" id="图层_1" xmlns="http://www.w3.org/2000/svg" xmlns:xlink="http://www.w3.org/1999/xlink" x="0px" y="0px"
	 width="566.9px" height="513.7px" viewBox="0 0 566.9 513.7" style="enable-background:new 0 0 566.9 513.7;" xml:space="preserve"
	>
<g>
	<g>
		<path d="M532.3,376.2c-28-16.2-62.1-11.9-85.1,8.4l-34.9-20.2v-99.9c0-10.3-5.5-20-14.5-25.1l-89.6-51.6v-44.2
			c29.1-9.9,50-37.4,50-69.9c0-40.8-33-73.8-73.8-73.8c-40.8,0-73.8,33-73.8,73.8c0,32.5,20.9,60,50,69.9v44.2l-89.6,51.6
			c-9,5.1-14.5,14.7-14.5,25.1v99.8l-34.9,20.2c-23-20.3-57.2-24.6-85.1-8.4c-35.2,20.4-47.2,65.5-27,100.7
			c20.3,35.2,65.1,47.3,100.2,27c28-16.2,41.3-48.1,35.3-78.2l32.1-18.6l92.6,53.3c4.5,2.6,9.5,3.9,14.5,3.9c5,0,10-1.3,14.5-3.9
			l92.5-53.3l32.1,18.6c-6,30.1,7.4,62,35.3,78.2c35.1,20.4,80,8.3,100.2-27C579.4,441.5,567.4,396.5,532.3,376.2L532.3,376.2z
			 M89.1,467.3c-15,8.7-34.3,3.6-42.9-11.6c-8.7-15.1-3.6-34.4,11.5-43.1c15-8.7,34.3-3.6,42.9,11.6
			C109.3,439.2,104.2,458.6,89.1,467.3L89.1,467.3z M252.9,73.8c0-17.5,14.2-31.6,31.6-31.6c17.5,0,31.6,14.2,31.6,31.6
			c0,17.5-14.2,31.6-31.6,31.6C267,105.4,252.9,91.2,252.9,73.8L252.9,73.8z M364.8,367.6l-80.3,46.3l-80.3-46.3v-92.5l80.3-46.3
			l80.3,46.3V367.6z M522.8,455.8c-8.7,15.1-27.9,20.3-42.9,11.6c-15-8.7-20.2-28.1-11.5-43.1c8.7-15.1,27.9-20.3,42.9-11.6
			C526.4,421.3,531.5,440.6,522.8,455.8L522.8,455.8z M522.8,455.8"/>
	</g>
</g>
</svg>
