<?xml version="1.0" encoding="utf-8"?>
<!-- Generator: Adobe Illustrator 23.0.2, SVG Export Plug-In . SVG Version: 6.00 Build 0)  -->
<svg version="1.1" id="图层_1" xmlns="http://www.w3.org/2000/svg" xmlns:xlink="http://www.w3.org/1999/xlink" x="0px" y="0px"
	 width="566.9px" height="527.9px" viewBox="0 0 566.9 527.9" style="enable-background:new 0 0 566.9 527.9;" xml:space="preserve"
	>
<g>
	<g>
		<path d="M533.4,375.4c-2.2-8.2-5.4-16.2-9.7-23.5l18.5-27.9l-0.1,0l-26.4-26.4l-27.9,18.5c-7.4-4.3-15.2-7.5-23.4-9.7l-6.7-32.8
			h-37.3l-6.7,32.8c-8.2,2.2-16.1,5.5-23.4,9.7l-27.9-18.5L336,323.9l18.5,27.9c-4.3,7.4-7.6,15.3-9.8,23.5l-32.8,6.7v37.3l32.8,6.7
			c2.2,8.2,5.5,16.2,9.7,23.5l-18.5,27.9l26.4,26.4l28-18.5c7.4,4.2,15.2,7.5,23.4,9.7l6.7,32.8h37.3l6.7-32.8
			c8.2-2.2,16.1-5.4,23.4-9.7l27.9,18.5l26.4-26.4l-18.5-27.9c4.3-7.4,7.5-15.3,9.7-23.5l32.8-6.7v-37.3L533.4,375.4z M439.1,444.9
			c-24.4,0-44.2-19.8-44.1-44.2c0-24.4,19.8-44.2,44.2-44.1c24.4,0,44.2,19.8,44.1,44.2C483.4,425.1,463.6,444.9,439.1,444.9
			L439.1,444.9z M439.1,444.9"/>
		<path d="M286.2,487.7c-18.2-42.3-39.1-116.1,2.1-174.3c0.9-0.7,1.5-1.3,2.3-1.9c29.9-22.2,48.8-56.1,52-93.1
			c0.4-4.1,0.9-8.1,0.9-12.3v-77c0-71.3-55.6-129.3-123.9-129.3c-68.3,0-123.9,58-123.9,129.3V206c0,44.2,21.4,83.2,53.9,106.6
			c-39.8,9.5-78.7,22.6-116.1,39.1C14,359.8-0.5,382.5-0.5,404.4v83.6c0,2.6,0.4,5.1,1.2,7.6c6.3,19.4,23.5,32.4,42.6,32.4h227.4
			c5.4-0.1,10.5-2.2,14.5-5.8c4.8-4.3,8.1-10.5,8.1-17.7c0-0.6-0.3-1.5-0.5-2.3C291.3,497,289.1,492.2,286.2,487.7"/>
	</g>
</g>
</svg>
